<?xml version="1.0" encoding="utf-8" standalone="no"?>
<!DOCTYPE svg PUBLIC "-//W3C//DTD SVG 1.1//EN"
  "http://www.w3.org/Graphics/SVG/1.1/DTD/svg11.dtd">
<!-- Created with matplotlib (https://matplotlib.org/) -->
<svg height="244.901563pt" version="1.1" viewBox="0 0 324.639062 244.901563" width="324.639062pt" xmlns="http://www.w3.org/2000/svg" xmlns:xlink="http://www.w3.org/1999/xlink">
 <metadata>
  <rdf:RDF xmlns:cc="http://creativecommons.org/ns#" xmlns:dc="http://purl.org/dc/elements/1.1/" xmlns:rdf="http://www.w3.org/1999/02/22-rdf-syntax-ns#">
   <cc:Work>
    <dc:type rdf:resource="http://purl.org/dc/dcmitype/StillImage"/>
    <dc:date>2021-08-11T09:32:57.693288</dc:date>
    <dc:format>image/svg+xml</dc:format>
    <dc:creator>
     <cc:Agent>
      <dc:title>Matplotlib v3.3.1, https://matplotlib.org/</dc:title>
     </cc:Agent>
    </dc:creator>
   </cc:Work>
  </rdf:RDF>
 </metadata>
 <defs>
  <style type="text/css">*{stroke-linecap:butt;stroke-linejoin:round;}</style>
 </defs>
 <g id="figure_1">
  <g id="patch_1">
   <path d="M 0 244.901563 
L 324.639062 244.901563 
L 324.639062 0 
L 0 0 
z
" style="fill:none;"/>
  </g>
  <g id="axes_1">
   <g id="patch_2">
    <path d="M 29.439062 226.945312 
L 317.439062 226.945312 
L 317.439062 10.945312 
L 29.439062 10.945312 
z
" style="fill:#ffffff;"/>
   </g>
   <g id="patch_3">
    <path clip-path="url(#p3ca10f9e91)" d="M 54.124777 226.945312 
L 70.58192 226.945312 
L 70.58192 166.465312 
L 54.124777 166.465312 
z
" style="fill:#008000;"/>
   </g>
   <g id="patch_4">
    <path clip-path="url(#p3ca10f9e91)" d="M 95.267634 226.945312 
L 111.724777 226.945312 
L 111.724777 218.305313 
L 95.267634 218.305313 
z
" style="fill:#008000;"/>
   </g>
   <g id="patch_5">
    <path clip-path="url(#p3ca10f9e91)" d="M 136.410491 226.945312 
L 152.867634 226.945312 
L 152.867634 181.585312 
L 136.410491 181.585312 
z
" style="fill:#008000;"/>
   </g>
   <g id="patch_6">
    <path clip-path="url(#p3ca10f9e91)" d="M 177.553348 226.945312 
L 194.010491 226.945312 
L 194.010491 162.145312 
L 177.553348 162.145312 
z
" style="fill:#008000;"/>
   </g>
   <g id="patch_7">
    <path clip-path="url(#p3ca10f9e91)" d="M 218.696205 226.945312 
L 235.153348 226.945312 
L 235.153348 220.465313 
L 218.696205 220.465313 
z
" style="fill:#008000;"/>
   </g>
   <g id="patch_8">
    <path clip-path="url(#p3ca10f9e91)" d="M 259.839062 226.945312 
L 276.296205 226.945312 
L 276.296205 207.505313 
L 259.839062 207.505313 
z
" style="fill:#008000;"/>
   </g>
   <g id="patch_9">
    <path clip-path="url(#p3ca10f9e91)" d="M 70.58192 226.945312 
L 87.039062 226.945312 
L 87.039062 152.068184 
L 70.58192 152.068184 
z
" style="fill:#ff0000;"/>
   </g>
   <g id="patch_10">
    <path clip-path="url(#p3ca10f9e91)" d="M 111.724777 226.945312 
L 128.18192 226.945312 
L 128.18192 201.400872 
L 111.724777 201.400872 
z
" style="fill:#ff0000;"/>
   </g>
   <g id="patch_11">
    <path clip-path="url(#p3ca10f9e91)" d="M 152.867634 226.945312 
L 169.324777 226.945312 
L 169.324777 196.948539 
L 152.867634 196.948539 
z
" style="fill:#ff0000;"/>
   </g>
   <g id="patch_12">
    <path clip-path="url(#p3ca10f9e91)" d="M 194.010491 226.945312 
L 210.467634 226.945312 
L 210.467634 196.926311 
L 194.010491 196.926311 
z
" style="fill:#ff0000;"/>
   </g>
   <g id="patch_13">
    <path clip-path="url(#p3ca10f9e91)" d="M 235.153348 226.945312 
L 251.610491 226.945312 
L 251.610491 201.401658 
L 235.153348 201.401658 
z
" style="fill:#ff0000;"/>
   </g>
   <g id="patch_14">
    <path clip-path="url(#p3ca10f9e91)" d="M 276.296205 226.945312 
L 292.753348 226.945312 
L 292.753348 196.926311 
L 276.296205 196.926311 
z
" style="fill:#ff0000;"/>
   </g>
   <g id="matplotlib.axis_1">
    <g id="xtick_1">
     <g id="line2d_1">
      <defs>
       <path d="M 0 0 
L 0 3.5 
" id="m2daed8e54d" style="stroke:#000000;stroke-width:0.8;"/>
      </defs>
      <g>
       <use style="stroke:#000000;stroke-width:0.8;" x="29.439063" xlink:href="#m2daed8e54d" y="226.945312"/>
      </g>
     </g>
    </g>
    <g id="xtick_2">
     <g id="line2d_2">
      <g>
       <use style="stroke:#000000;stroke-width:0.8;" x="70.58192" xlink:href="#m2daed8e54d" y="226.945312"/>
      </g>
     </g>
     <g id="text_1">
      <!-- 正解 -->
      <g transform="translate(66.58192 236.941563)scale(0.04 -0.04)">
       <defs>
        <path d="M 55.421875 6.390625 
L 92.4375 6.390625 
L 92.4375 -0.484375 
L 7.515625 -0.484375 
L 7.515625 6.390625 
L 22.515625 6.390625 
L 22.515625 50.484375 
L 30.21875 50.484375 
L 30.21875 6.390625 
L 47.796875 6.390625 
L 47.796875 67 
L 11.71875 67 
L 11.71875 73.875 
L 88.421875 73.875 
L 88.421875 67 
L 55.421875 67 
L 55.421875 41.703125 
L 83.640625 41.703125 
L 83.640625 35.015625 
L 55.421875 35.015625 
z
" id="IPAexGothic-27491"/>
        <path d="M 70.90625 34.71875 
L 70.90625 45.40625 
L 77.390625 45.40625 
L 77.390625 34.71875 
L 91.40625 34.71875 
L 91.40625 28.90625 
L 77.390625 28.90625 
L 77.390625 18.109375 
L 94.875 18.109375 
L 94.875 12.109375 
L 77.390625 12.109375 
L 77.390625 -6.984375 
L 70.90625 -6.984375 
L 70.90625 12.109375 
L 51.609375 12.109375 
L 51.609375 18.109375 
L 70.90625 18.109375 
L 70.90625 28.90625 
L 60.890625 28.90625 
Q 59.078125 23.875 56.59375 19.828125 
L 51.609375 24.125 
Q 56.25 32.375 57.90625 42.71875 
L 64.109375 41.609375 
Q 63.328125 37.75 62.59375 34.71875 
z
M 37.40625 59.421875 
L 49.078125 59.421875 
L 49.078125 0.984375 
Q 49.078125 -3.328125 46.96875 -4.78125 
Q 45.3125 -6 40.96875 -6 
Q 35.15625 -6 29.984375 -5.328125 
L 28.953125 1.609375 
Q 35.59375 0.484375 39.796875 0.484375 
Q 42.875 0.484375 42.875 3.328125 
L 42.875 20.609375 
L 19.390625 20.609375 
Q 18.609375 4.734375 11.28125 -8.015625 
L 6.15625 -2.78125 
Q 13.484375 8.84375 13.484375 29.203125 
L 13.484375 49.703125 
Q 11.53125 46.875 8.0625 42.828125 
L 4.390625 48.34375 
Q 17.28125 63.328125 21.296875 83.109375 
L 28.078125 81.84375 
Q 27.296875 78.8125 26.859375 77.484375 
L 26.5625 76.421875 
L 41.453125 76.421875 
L 44.578125 73.1875 
Q 41.453125 66.21875 37.40625 59.421875 
z
M 28.265625 53.90625 
L 19.671875 53.90625 
L 19.671875 42.921875 
L 28.265625 42.921875 
z
M 33.984375 53.90625 
L 33.984375 42.921875 
L 42.875 42.921875 
L 42.875 53.90625 
z
M 28.265625 37.59375 
L 19.671875 37.59375 
L 19.671875 26.125 
L 28.265625 26.125 
z
M 33.984375 37.59375 
L 33.984375 26.125 
L 42.875 26.125 
L 42.875 37.59375 
z
M 30.765625 59.421875 
Q 33.9375 64.703125 36.28125 70.796875 
L 24.5625 70.796875 
Q 22.015625 64.0625 19.484375 59.421875 
z
M 72.21875 71.78125 
Q 70.84375 54.203125 56.203125 45.265625 
L 51.515625 50.390625 
Q 63.875 56.640625 65.484375 71.78125 
L 51.8125 71.78125 
L 51.8125 77.78125 
L 91.3125 77.78125 
Q 90.828125 59.234375 89.59375 53.46875 
Q 88.875 49.90625 86.8125 48.484375 
Q 85.0625 47.359375 81 47.359375 
Q 75.984375 47.359375 71.1875 48.09375 
L 70.3125 54.296875 
Q 75.296875 53.46875 78.8125 53.46875 
Q 82.28125 53.46875 83.015625 56.25 
Q 83.9375 59.859375 84.375 71.78125 
z
" id="IPAexGothic-35299"/>
       </defs>
       <use xlink:href="#IPAexGothic-27491"/>
       <use x="100" xlink:href="#IPAexGothic-35299"/>
      </g>
     </g>
    </g>
    <g id="xtick_3">
     <g id="line2d_3">
      <g>
       <use style="stroke:#000000;stroke-width:0.8;" x="111.724777" xlink:href="#m2daed8e54d" y="226.945312"/>
      </g>
     </g>
     <g id="text_2">
      <!-- 意味エラー -->
      <g transform="translate(101.724777 236.941563)scale(0.04 -0.04)">
       <defs>
        <path d="M 50.09375 21.78125 
Q 55.671875 17.140625 60.890625 10.40625 
L 55.078125 6.109375 
Q 49.46875 13.71875 44.53125 18.359375 
L 49.8125 21.78125 
L 20.015625 21.78125 
L 20.015625 48.1875 
L 79.78125 48.1875 
L 79.78125 21.78125 
z
M 27.296875 42.875 
L 27.296875 37.796875 
L 72.609375 37.796875 
L 72.609375 42.875 
z
M 27.296875 32.625 
L 27.296875 27.09375 
L 72.609375 27.09375 
L 72.609375 32.625 
z
M 53.421875 73.78125 
L 87.890625 73.78125 
L 87.890625 68.265625 
L 71.1875 68.265625 
Q 69.34375 63.53125 67 59.515625 
L 93.40625 59.515625 
L 93.40625 53.8125 
L 6.5 53.8125 
L 6.5 59.515625 
L 32.515625 59.515625 
Q 30.953125 63.765625 28.421875 68.265625 
L 12.015625 68.265625 
L 12.015625 73.78125 
L 45.90625 73.78125 
L 45.90625 82.953125 
L 53.421875 82.953125 
z
M 36.1875 68.265625 
Q 37.890625 65.140625 39.890625 59.515625 
L 59.8125 59.515625 
Q 62.015625 63.53125 63.625 68.265625 
z
M 6.203125 -0.390625 
Q 13.578125 6.546875 18.40625 16.3125 
L 24.703125 13.484375 
Q 19.921875 2.25 12.109375 -5.421875 
z
M 31.390625 17.671875 
L 38.71875 17.671875 
L 38.71875 4.984375 
Q 38.71875 2 40.328125 1.5625 
Q 42.140625 0.875 51.3125 0.875 
Q 65.375 0.875 66.796875 2.203125 
Q 68.171875 3.375 68.609375 10.984375 
L 75.53125 9.078125 
Q 75.390625 -0.53125 72.40625 -3.21875 
Q 69.53125 -5.8125 53.125 -5.8125 
Q 38.328125 -5.8125 35.296875 -4.5 
Q 31.390625 -3.03125 31.390625 2.203125 
z
M 89.5 -2.984375 
Q 82.90625 6.984375 73.484375 15.484375 
L 78.71875 19.28125 
Q 87.984375 11.8125 95.703125 2.203125 
z
" id="IPAexGothic-24847"/>
        <path d="M 68.21875 37.703125 
Q 77.203125 20.515625 95.703125 8.890625 
L 90.328125 2.203125 
Q 74.3125 14.59375 66.3125 31.109375 
L 66.3125 -6.984375 
L 59.421875 -6.984375 
L 59.421875 30.171875 
Q 52.046875 11.671875 33.640625 -0.921875 
L 28.515625 4.984375 
Q 48.34375 16.75 57.515625 37.703125 
L 35.84375 37.703125 
L 35.84375 44.09375 
L 59.421875 44.09375 
L 59.421875 58.984375 
L 37.84375 58.984375 
L 37.84375 65.28125 
L 59.421875 65.28125 
L 59.421875 82.375 
L 66.3125 82.375 
L 66.3125 65.28125 
L 89.796875 65.28125 
L 89.796875 58.984375 
L 66.3125 58.984375 
L 66.3125 44.09375 
L 93.796875 44.09375 
L 93.796875 37.703125 
z
M 33.5 72.40625 
L 33.5 16.796875 
L 15.09375 16.796875 
L 15.09375 8.984375 
L 8.40625 8.984375 
L 8.40625 72.40625 
z
M 15.09375 66.015625 
L 15.09375 23.09375 
L 26.703125 23.09375 
L 26.703125 66.015625 
z
" id="IPAexGothic-21619"/>
        <path d="M 17.328125 63.484375 
L 82.71875 63.484375 
L 82.71875 56.15625 
L 53.8125 56.15625 
L 53.8125 15.4375 
L 89.984375 15.4375 
L 89.984375 8.015625 
L 10.015625 8.015625 
L 10.015625 15.4375 
L 45.515625 15.4375 
L 45.515625 56.15625 
L 17.328125 56.15625 
z
" id="IPAexGothic-12456"/>
        <path d="M 22.609375 73.578125 
L 76.90625 73.578125 
L 76.90625 66.15625 
L 22.609375 66.15625 
z
M 14.015625 51.609375 
L 80.8125 51.609375 
L 85.59375 47.078125 
Q 79.203125 26.078125 65.921875 13.671875 
Q 54.296875 2.828125 36.03125 -2.828125 
L 30.8125 4.59375 
Q 64.84375 12.25 75.53125 44.1875 
L 14.015625 44.1875 
z
" id="IPAexGothic-12521"/>
        <path d="M 9.1875 42 
L 90.765625 42 
L 90.765625 33.984375 
L 9.1875 33.984375 
z
" id="IPAexGothic-12540"/>
       </defs>
       <use xlink:href="#IPAexGothic-24847"/>
       <use x="100" xlink:href="#IPAexGothic-21619"/>
       <use x="200" xlink:href="#IPAexGothic-12456"/>
       <use x="300" xlink:href="#IPAexGothic-12521"/>
       <use x="400" xlink:href="#IPAexGothic-12540"/>
      </g>
     </g>
    </g>
    <g id="xtick_4">
     <g id="line2d_4">
      <g>
       <use style="stroke:#000000;stroke-width:0.8;" x="152.867634" xlink:href="#m2daed8e54d" y="226.945312"/>
      </g>
     </g>
     <g id="text_3">
      <!-- 形態エラー -->
      <g transform="translate(142.867634 236.941563)scale(0.04 -0.04)">
       <defs>
        <path d="M 44.625 70.125 
L 44.625 44.671875 
L 58.5 44.671875 
L 58.5 38.375 
L 44.921875 38.375 
L 44.921875 -6 
L 38.03125 -6 
L 38.03125 38.375 
L 25.828125 38.375 
L 25.828125 37.40625 
Q 25.828125 22.265625 22.90625 11.859375 
Q 19.78125 0.921875 11.8125 -8.203125 
L 6.640625 -2.828125 
Q 18.953125 10.40625 18.953125 36.578125 
L 18.953125 38.375 
L 5.03125 38.375 
L 5.03125 44.671875 
L 18.953125 44.671875 
L 18.953125 70.125 
L 7.515625 70.125 
L 7.515625 76.421875 
L 56.390625 76.421875 
L 56.390625 70.125 
z
M 37.75 70.125 
L 25.828125 70.125 
L 25.828125 44.671875 
L 37.75 44.671875 
z
M 52.640625 0.09375 
Q 75.921875 11.53125 89.5 34.421875 
L 96 30.71875 
Q 81.5 6.296875 57.625 -6 
z
M 52.09375 53.515625 
Q 71.34375 62.984375 81.203125 80.328125 
L 88.03125 76.703125 
Q 76.125 57.765625 57.03125 47.90625 
z
M 51.609375 27 
Q 73.1875 36.421875 85.5 57.90625 
L 92 54.390625 
Q 78.515625 31.734375 56.390625 20.90625 
z
" id="IPAexGothic-24418"/>
        <path d="M 13.53125 67.828125 
Q 19.046875 75.921875 22.40625 83.984375 
L 29.640625 82.328125 
Q 24.953125 74.078125 20.609375 67.921875 
Q 29 68.0625 40.53125 68.796875 
Q 37.453125 72.265625 34.234375 75.484375 
L 39.40625 78.90625 
Q 46.625 72.265625 52.734375 64.3125 
L 47.21875 60.203125 
Q 46.09375 61.71875 44.09375 64.3125 
Q 31.546875 62.40625 7.71875 61.53125 
L 5.609375 67.671875 
Q 12.9375 67.671875 13.53125 67.828125 
z
M 46.1875 58.015625 
L 46.1875 29.6875 
Q 46.1875 25.34375 44.390625 24.03125 
Q 42.828125 22.90625 38.921875 22.90625 
Q 34.515625 22.90625 29.390625 23.390625 
L 28.421875 29.390625 
Q 33.34375 28.515625 37.109375 28.515625 
Q 39.703125 28.515625 39.703125 31.203125 
L 39.703125 35.109375 
L 18.109375 35.109375 
L 18.109375 21.734375 
L 11.625 21.734375 
L 11.625 58.015625 
z
M 18.109375 53.421875 
L 18.109375 48.875 
L 39.703125 48.875 
L 39.703125 53.421875 
z
M 18.109375 44.28125 
L 18.109375 39.59375 
L 39.703125 39.59375 
L 39.703125 44.28125 
z
M 61.421875 42.28125 
Q 73.484375 43.890625 83.25 47.90625 
L 88.625 42.578125 
Q 75.25 38.421875 61.421875 36.671875 
L 61.421875 32.5625 
Q 61.421875 29.828125 63.53125 29.390625 
Q 65.875 28.90625 72.65625 28.90625 
Q 84.421875 28.90625 85.453125 31.109375 
Q 86.1875 32.71875 86.328125 37.15625 
L 92.921875 35.59375 
Q 92.921875 34.671875 92.828125 34.375 
Q 92.53125 27.640625 90.921875 25.59375 
Q 88.671875 22.703125 72.859375 22.703125 
Q 59.625 22.703125 57.125 24.3125 
Q 54.828125 25.984375 54.828125 30.171875 
L 54.828125 50.984375 
L 61.421875 50.984375 
z
M 61.421875 73.09375 
Q 73.921875 75.34375 82.625 79 
L 88.140625 73.578125 
Q 75.734375 69.484375 61.421875 67.390625 
L 61.421875 64.109375 
Q 61.421875 61.328125 63.140625 60.6875 
Q 64.9375 60.203125 71.234375 60.203125 
Q 83.734375 60.203125 84.90625 61.71875 
Q 86.234375 63.140625 86.234375 68.703125 
L 92.71875 67.1875 
Q 92.28125 57.421875 89.75 55.90625 
Q 86.8125 54.203125 71.734375 54.203125 
Q 60.9375 54.203125 58.109375 55.328125 
Q 54.828125 56.640625 54.828125 61.28125 
L 54.828125 83.015625 
L 61.421875 83.015625 
z
M 6.203125 -0.390625 
Q 13.875 6.984375 17.828125 17.671875 
L 24.421875 15.484375 
Q 20.125 2.828125 12.203125 -5.515625 
z
M 30.71875 19.484375 
L 38.03125 19.484375 
L 38.03125 5.609375 
Q 38.03125 2.296875 40.046875 1.65625 
Q 41.890625 0.984375 50.640625 0.984375 
Q 64.984375 0.984375 66.546875 2.984375 
Q 67.828125 4.59375 67.828125 11.375 
L 74.859375 9.28125 
Q 74.703125 -0.6875 71.734375 -3.21875 
Q 68.890625 -5.609375 49.03125 -5.609375 
Q 37.3125 -5.609375 34.421875 -4.390625 
Q 30.71875 -2.78125 30.71875 2.09375 
z
M 89.109375 -3.515625 
Q 81.6875 8.109375 73.09375 16.40625 
L 78.8125 19.921875 
Q 87.15625 12.3125 95.40625 0.875 
z
M 54.9375 5.90625 
Q 48.96875 13.71875 43.21875 18.703125 
L 48.53125 23 
Q 55.421875 17.046875 60.6875 10.59375 
z
" id="IPAexGothic-24907"/>
       </defs>
       <use xlink:href="#IPAexGothic-24418"/>
       <use x="100" xlink:href="#IPAexGothic-24907"/>
       <use x="200" xlink:href="#IPAexGothic-12456"/>
       <use x="300" xlink:href="#IPAexGothic-12521"/>
       <use x="400" xlink:href="#IPAexGothic-12540"/>
      </g>
     </g>
    </g>
    <g id="xtick_5">
     <g id="line2d_5">
      <g>
       <use style="stroke:#000000;stroke-width:0.8;" x="194.010491" xlink:href="#m2daed8e54d" y="226.945312"/>
      </g>
     </g>
     <g id="text_4">
      <!-- 混合エラー -->
      <g transform="translate(184.010491 236.941563)scale(0.04 -0.04)">
       <defs>
        <path d="M 35.5 3.21875 
L 35.5 37.890625 
L 42.390625 37.890625 
L 42.390625 26.90625 
L 60.0625 26.90625 
L 60.0625 20.90625 
L 42.390625 20.90625 
L 42.390625 4.6875 
Q 52.546875 6.984375 59.765625 9.078125 
L 60.0625 3.078125 
Q 44.78125 -2.25 28.171875 -5.515625 
L 25.59375 1.3125 
Q 31.890625 2.390625 35.5 3.21875 
z
M 85.015625 77.875 
L 85.015625 41.609375 
L 34.515625 41.609375 
L 34.515625 77.875 
z
M 41.5 71.96875 
L 41.5 62.796875 
L 78.03125 62.796875 
L 78.03125 71.96875 
z
M 41.5 57.171875 
L 41.5 47.515625 
L 78.03125 47.515625 
L 78.03125 57.171875 
z
M 70.40625 25 
Q 80.125 28.21875 87.109375 32.90625 
L 92.28125 27.484375 
Q 83.203125 22.46875 70.40625 18.890625 
L 70.40625 6.109375 
Q 70.40625 3.421875 72.3125 2.6875 
Q 73.96875 2.09375 78.328125 2.09375 
Q 85.359375 2.09375 86.421875 4.109375 
Q 87.640625 6.734375 87.796875 16.21875 
L 94.828125 13.8125 
Q 94.046875 0.984375 92.1875 -1.515625 
Q 89.9375 -4.390625 78.03125 -4.390625 
Q 69.4375 -4.390625 67 -3.375 
Q 63.625 -2.046875 63.625 2.984375 
L 63.625 37.890625 
L 70.40625 37.890625 
z
M 23.4375 60.40625 
Q 17.671875 67.234375 9.234375 73.78125 
L 14.015625 79.109375 
Q 21.234375 74.359375 28.328125 66.40625 
z
M 21.921875 37.40625 
Q 15.09375 45.40625 7.234375 50.78125 
L 12.015625 56.296875 
Q 20.84375 50.140625 27 43.109375 
z
M 5.328125 0.09375 
Q 14.9375 12.5 22.515625 29.984375 
L 27.828125 24.421875 
Q 19.828125 6.109375 11.328125 -6.109375 
z
" id="IPAexGothic-28151"/>
        <path d="M 28.609375 49.8125 
L 72.703125 49.8125 
L 72.703125 43.40625 
L 27.296875 43.40625 
L 27.296875 48.828125 
Q 19.921875 43.40625 9.28125 38.328125 
L 4.59375 44.1875 
Q 31.34375 54.828125 45.171875 80.421875 
L 53.609375 80.421875 
Q 67.671875 59.46875 95.703125 46.921875 
L 91.109375 40.4375 
Q 64.359375 53.375 49.609375 73.921875 
Q 41.40625 59.46875 28.609375 49.8125 
z
M 79.890625 32.625 
L 79.890625 -7.03125 
L 72.46875 -7.03125 
L 72.46875 -1.515625 
L 27.59375 -1.515625 
L 27.59375 -7.03125 
L 20.0625 -7.03125 
L 20.0625 32.625 
z
M 27.59375 26.421875 
L 27.59375 4.6875 
L 72.46875 4.6875 
L 72.46875 26.421875 
z
" id="IPAexGothic-21512"/>
       </defs>
       <use xlink:href="#IPAexGothic-28151"/>
       <use x="100" xlink:href="#IPAexGothic-21512"/>
       <use x="200" xlink:href="#IPAexGothic-12456"/>
       <use x="300" xlink:href="#IPAexGothic-12521"/>
       <use x="400" xlink:href="#IPAexGothic-12540"/>
      </g>
     </g>
    </g>
    <g id="xtick_6">
     <g id="line2d_6">
      <g>
       <use style="stroke:#000000;stroke-width:0.8;" x="235.153348" xlink:href="#m2daed8e54d" y="226.945312"/>
      </g>
     </g>
     <g id="text_5">
      <!-- 無関連エラー -->
      <g transform="translate(223.153348 236.941563)scale(0.04 -0.04)">
       <defs>
        <path d="M 80.21875 66.21875 
L 80.21875 49.8125 
L 94.4375 49.8125 
L 94.4375 43.609375 
L 80.21875 43.609375 
L 80.21875 26.8125 
L 91.40625 26.8125 
L 91.40625 20.609375 
L 8.5 20.609375 
L 8.5 26.8125 
L 22.015625 26.8125 
L 22.015625 43.609375 
L 5.515625 43.609375 
L 5.515625 49.8125 
L 22.015625 49.8125 
L 22.015625 63.1875 
Q 18.0625 57.671875 13.8125 53.71875 
L 8.9375 58.296875 
Q 20.171875 68.65625 26.03125 82.90625 
L 32.71875 80.609375 
Q 31.84375 78.765625 28.125 72.3125 
L 89.015625 72.3125 
L 89.015625 66.21875 
z
M 28.515625 66.21875 
L 28.515625 49.8125 
L 39.3125 49.8125 
L 39.3125 66.21875 
z
M 45.40625 66.21875 
L 45.40625 49.8125 
L 56.203125 49.8125 
L 56.203125 66.21875 
z
M 62.3125 66.21875 
L 62.3125 49.8125 
L 73.734375 49.8125 
L 73.734375 66.21875 
z
M 73.734375 43.609375 
L 62.3125 43.609375 
L 62.3125 26.8125 
L 73.734375 26.8125 
z
M 56.203125 43.609375 
L 45.40625 43.609375 
L 45.40625 26.8125 
L 56.203125 26.8125 
z
M 39.3125 43.609375 
L 28.515625 43.609375 
L 28.515625 26.8125 
L 39.3125 26.8125 
z
M 7.90625 -2.484375 
Q 15.578125 5.765625 20.21875 17.28125 
L 26.8125 14.59375 
Q 21.875 1.421875 14.203125 -7.625 
z
M 38.53125 -6.890625 
Q 37.359375 4 34.71875 14.109375 
L 41.5 15.484375 
Q 44.828125 5.46875 46.296875 -5.171875 
z
M 60.296875 -5.328125 
Q 57.171875 6.453125 52.828125 14.890625 
L 59.71875 17.09375 
Q 64.0625 9.03125 67.921875 -2.484375 
z
M 87.015625 -5.609375 
Q 79.59375 7.328125 72.125 15.484375 
L 78.21875 18.890625 
Q 87.15625 9.515625 93.890625 -0.984375 
z
" id="IPAexGothic-28961"/>
        <path d="M 45.609375 79.109375 
L 45.609375 51.375 
L 15.875 51.375 
L 15.875 -7.03125 
L 8.890625 -7.03125 
L 8.890625 79.109375 
z
M 15.875 73.578125 
L 15.875 67.671875 
L 39.203125 67.671875 
L 39.203125 73.578125 
z
M 15.875 62.796875 
L 15.875 56.6875 
L 39.203125 56.6875 
L 39.203125 62.796875 
z
M 90.96875 79.109375 
L 90.96875 0.6875 
Q 90.96875 -6.390625 82.765625 -6.390625 
Q 77.4375 -6.390625 73 -5.71875 
L 71.78125 1.515625 
Q 75.640625 0.484375 80.5625 0.484375 
Q 83.890625 0.484375 83.890625 3.8125 
L 83.890625 51.375 
L 53.46875 51.375 
L 53.46875 79.109375 
z
M 59.859375 73.578125 
L 59.859375 67.671875 
L 83.890625 67.671875 
L 83.890625 73.578125 
z
M 59.859375 62.796875 
L 59.859375 56.6875 
L 83.890625 56.6875 
L 83.890625 62.796875 
z
M 37.890625 38.71875 
Q 36.375 42.390625 33.59375 46.484375 
L 39.984375 48.78125 
Q 42.328125 44.78125 44.671875 38.71875 
L 55.078125 38.71875 
Q 58.0625 44.484375 59.46875 49.171875 
L 66.5 47.21875 
Q 63.8125 41.703125 61.765625 38.71875 
L 74.46875 38.71875 
L 74.46875 33.015625 
L 52.984375 33.015625 
L 52.984375 26.125 
L 77 26.125 
L 77 20.3125 
L 52.59375 20.3125 
Q 52.546875 19.734375 52.09375 17.828125 
Q 62.75 13.484375 73.96875 6.390625 
L 69.1875 0.53125 
Q 60.75 6.890625 51.265625 11.921875 
Q 51.21875 11.96875 50.640625 12.3125 
Q 50.390625 12.453125 50.296875 12.5 
Q 45.015625 1.5625 29.296875 -4 
L 24.8125 1.90625 
Q 43.265625 6.390625 45.796875 20.3125 
L 22.90625 20.3125 
L 22.90625 26.125 
L 46.296875 26.125 
L 46.296875 33.015625 
L 25.390625 33.015625 
L 25.390625 38.71875 
z
" id="IPAexGothic-38306"/>
        <path d="M 57.8125 59.625 
L 57.8125 66.796875 
L 30.078125 66.796875 
L 30.078125 72.609375 
L 57.8125 72.609375 
L 57.8125 83.015625 
L 64.5 83.015625 
L 64.5 72.609375 
L 92 72.609375 
L 92 66.796875 
L 64.5 66.796875 
L 64.5 59.625 
L 86.28125 59.625 
L 86.28125 28.5625 
L 64.5 28.5625 
L 64.5 21 
L 92.96875 21 
L 92.96875 14.984375 
L 64.5 14.984375 
L 64.5 3.71875 
L 57.8125 3.71875 
L 57.8125 14.984375 
L 29.984375 14.984375 
L 29.984375 21 
L 57.8125 21 
L 57.8125 28.5625 
L 35.984375 28.5625 
L 35.984375 59.625 
z
M 58.015625 53.90625 
L 42.484375 53.90625 
L 42.484375 46.921875 
L 58.015625 46.921875 
z
M 64.3125 53.90625 
L 64.3125 46.921875 
L 79.78125 46.921875 
L 79.78125 53.90625 
z
M 58.015625 41.40625 
L 42.484375 41.40625 
L 42.484375 34.1875 
L 58.015625 34.1875 
z
M 64.3125 41.40625 
L 64.3125 34.1875 
L 79.78125 34.1875 
L 79.78125 41.40625 
z
M 26.5625 11.1875 
Q 30.421875 5.859375 37.0625 3.5625 
Q 43.65625 1.375 61.46875 1.375 
Q 75.984375 1.375 95.953125 2.59375 
Q 94.09375 -0.828125 93.359375 -4.78125 
Q 76.265625 -5.421875 66.84375 -5.421875 
Q 44.875 -5.421875 36.1875 -2.828125 
Q 28.03125 -0.25 23.6875 5.90625 
Q 18.359375 -0.53125 9.578125 -7.515625 
L 4.984375 -0.203125 
Q 13.71875 4.9375 19.671875 10.203125 
L 19.671875 35.984375 
L 5.859375 35.984375 
L 5.859375 42.671875 
L 26.5625 42.671875 
z
M 23.78125 58.984375 
Q 15.921875 68.40625 8.6875 73.875 
L 13.578125 78.90625 
Q 23.484375 71.046875 29.109375 64.40625 
z
" id="IPAexGothic-36899"/>
       </defs>
       <use xlink:href="#IPAexGothic-28961"/>
       <use x="100" xlink:href="#IPAexGothic-38306"/>
       <use x="200" xlink:href="#IPAexGothic-36899"/>
       <use x="300" xlink:href="#IPAexGothic-12456"/>
       <use x="400" xlink:href="#IPAexGothic-12521"/>
       <use x="500" xlink:href="#IPAexGothic-12540"/>
      </g>
     </g>
    </g>
    <g id="xtick_7">
     <g id="line2d_7">
      <g>
       <use style="stroke:#000000;stroke-width:0.8;" x="276.296205" xlink:href="#m2daed8e54d" y="226.945312"/>
      </g>
     </g>
     <g id="text_6">
      <!-- 非単語エラー -->
      <g transform="translate(264.296205 236.941563)scale(0.04 -0.04)">
       <defs>
        <path d="M 41.75 26.609375 
Q 45.84375 27.390625 52.484375 29.15625 
L 52.78125 23.046875 
Q 44.96875 21.046875 40.875 19.921875 
Q 37.546875 2.9375 18.40625 -8.15625 
L 13.375 -2.390625 
Q 29.828125 6.453125 33.296875 18.21875 
Q 18.3125 14.890625 7.078125 12.9375 
L 4.5 20.125 
Q 16.265625 21.625 29.78125 24.21875 
L 34.46875 25.046875 
Q 34.96875 29.34375 35.109375 37.84375 
L 35.109375 38.53125 
L 10.015625 38.53125 
L 10.015625 44.828125 
L 35.109375 44.828125 
L 35.109375 58.296875 
L 8.5 58.296875 
L 8.5 64.59375 
L 35.109375 64.59375 
L 35.109375 79.78125 
L 42.28125 79.78125 
L 42.28125 41.015625 
Q 42.28125 33.109375 41.75 26.609375 
z
M 64.5 64.59375 
L 92.484375 64.59375 
L 92.484375 58.296875 
L 64.5 58.296875 
L 64.5 44.921875 
L 89.5 44.921875 
L 89.5 38.625 
L 64.5 38.625 
L 64.5 24.421875 
L 94.484375 24.421875 
L 94.484375 18.109375 
L 64.5 18.109375 
L 64.5 -6 
L 57.328125 -6 
L 57.328125 80.328125 
L 64.5 80.328125 
z
" id="IPAexGothic-38750"/>
        <path d="M 84.421875 26.703125 
L 53.328125 26.703125 
L 53.328125 17.484375 
L 94.4375 17.484375 
L 94.4375 11.078125 
L 53.328125 11.078125 
L 53.328125 -7.03125 
L 45.90625 -7.03125 
L 45.90625 11.078125 
L 5.515625 11.078125 
L 5.515625 17.484375 
L 45.90625 17.484375 
L 45.90625 26.703125 
L 15.53125 26.703125 
L 15.53125 61.71875 
L 60.203125 61.71875 
Q 67.09375 70.84375 72.515625 81.84375 
L 80.125 78.328125 
Q 74.65625 69.1875 68.40625 61.71875 
L 84.421875 61.71875 
z
M 77.296875 32.515625 
L 77.296875 41.796875 
L 53.125 41.796875 
L 53.125 32.515625 
z
M 77.296875 47.3125 
L 77.296875 55.90625 
L 53.125 55.90625 
L 53.125 47.3125 
z
M 22.609375 55.90625 
L 22.609375 47.3125 
L 46.1875 47.3125 
L 46.1875 55.90625 
z
M 22.609375 41.796875 
L 22.609375 32.515625 
L 46.1875 32.515625 
L 46.1875 41.796875 
z
M 46.921875 63.484375 
Q 44.578125 70.796875 39.984375 78.90625 
L 46.828125 81.890625 
Q 51.125 75.53125 54.59375 66.40625 
z
M 25.828125 62.984375 
Q 22.703125 71.296875 18.609375 77.484375 
L 25.390625 80.515625 
Q 29.734375 75 33.5 65.921875 
z
" id="IPAexGothic-21336"/>
        <path d="M 37.3125 26.3125 
L 37.3125 -2 
L 14.984375 -2 
L 14.984375 -6.984375 
L 8.40625 -6.984375 
L 8.40625 26.3125 
z
M 14.984375 20.515625 
L 14.984375 3.8125 
L 30.71875 3.8125 
L 30.71875 20.515625 
z
M 67.28125 72.796875 
Q 66.3125 64.5 65.71875 60.984375 
L 85.296875 60.984375 
L 85.296875 40.71875 
L 95.40625 40.71875 
L 95.40625 34.71875 
L 39.703125 34.71875 
L 39.703125 40.71875 
L 55.03125 40.71875 
Q 55.125 41.265625 57.625 53.375 
L 57.90625 55.171875 
L 45.015625 55.171875 
L 45.015625 60.984375 
L 58.890625 60.984375 
Q 58.984375 61.1875 58.984375 61.671875 
Q 59.859375 66.546875 60.6875 72.796875 
L 43.015625 72.796875 
L 43.015625 78.8125 
L 90.484375 78.8125 
L 90.484375 72.796875 
z
M 78.8125 55.171875 
L 64.703125 55.171875 
Q 62.703125 44.28125 61.921875 40.71875 
L 78.8125 40.71875 
z
M 87.59375 25.390625 
L 87.59375 -6.984375 
L 80.90625 -6.984375 
L 80.90625 -2.09375 
L 53.421875 -2.09375 
L 53.421875 -7.078125 
L 46.734375 -7.078125 
L 46.734375 25.390625 
z
M 53.421875 19.578125 
L 53.421875 3.71875 
L 80.90625 3.71875 
L 80.90625 19.578125 
z
M 9.90625 78.8125 
L 35.84375 78.8125 
L 35.84375 72.796875 
L 9.90625 72.796875 
z
M 5.421875 65.71875 
L 39.84375 65.71875 
L 39.84375 59.625 
L 5.421875 59.625 
z
M 9.90625 52.484375 
L 35.84375 52.484375 
L 35.84375 46.484375 
L 9.90625 46.484375 
z
M 9.90625 39.40625 
L 35.84375 39.40625 
L 35.84375 33.40625 
L 9.90625 33.40625 
z
" id="IPAexGothic-35486"/>
       </defs>
       <use xlink:href="#IPAexGothic-38750"/>
       <use x="100" xlink:href="#IPAexGothic-21336"/>
       <use x="200" xlink:href="#IPAexGothic-35486"/>
       <use x="300" xlink:href="#IPAexGothic-12456"/>
       <use x="400" xlink:href="#IPAexGothic-12521"/>
       <use x="500" xlink:href="#IPAexGothic-12540"/>
      </g>
     </g>
    </g>
    <g id="xtick_8">
     <g id="line2d_8">
      <g>
       <use style="stroke:#000000;stroke-width:0.8;" x="317.439062" xlink:href="#m2daed8e54d" y="226.945312"/>
      </g>
     </g>
    </g>
   </g>
   <g id="matplotlib.axis_2">
    <g id="ytick_1">
     <g id="line2d_9">
      <defs>
       <path d="M 0 0 
L -3.5 0 
" id="mf0597bf3b1" style="stroke:#000000;stroke-width:0.8;"/>
      </defs>
      <g>
       <use style="stroke:#000000;stroke-width:0.8;" x="29.439062" xlink:href="#mf0597bf3b1" y="226.945312"/>
      </g>
     </g>
     <g id="text_7">
      <!-- 0.0 -->
      <g transform="translate(7.2 230.690625)scale(0.1 -0.1)">
       <defs>
        <path d="M 31.84375 73.828125 
Q 45.015625 73.828125 52.09375 61.625 
Q 57.71875 51.953125 57.71875 36.625 
Q 57.71875 21.4375 52.09375 11.578125 
Q 45.125 -0.484375 31.5 -0.484375 
Q 17.921875 -0.484375 10.9375 11.578125 
Q 5.328125 21.4375 5.328125 36.71875 
Q 5.328125 58.015625 15.625 67.71875 
Q 22.171875 73.828125 31.84375 73.828125 
z
M 31.5 66.65625 
Q 23.6875 66.65625 19.1875 58.734375 
Q 14.59375 50.734375 14.59375 36.625 
Q 14.59375 22.75 19.09375 14.796875 
Q 23.640625 6.984375 31.5 6.984375 
Q 40.921875 6.984375 45.453125 18.015625 
Q 48.4375 25.34375 48.4375 37.109375 
Q 48.4375 50.875 43.84375 58.734375 
Q 39.203125 66.65625 31.5 66.65625 
z
" id="IPAexGothic-48"/>
        <path d="M 18.5 0.984375 
L 7.71875 0.984375 
L 7.71875 11.765625 
L 18.5 11.765625 
z
" id="IPAexGothic-46"/>
       </defs>
       <use xlink:href="#IPAexGothic-48"/>
       <use x="62.988281" xlink:href="#IPAexGothic-46"/>
       <use x="89.404297" xlink:href="#IPAexGothic-48"/>
      </g>
     </g>
    </g>
    <g id="ytick_2">
     <g id="line2d_10">
      <g>
       <use style="stroke:#000000;stroke-width:0.8;" x="29.439062" xlink:href="#mf0597bf3b1" y="183.745313"/>
      </g>
     </g>
     <g id="text_8">
      <!-- 0.2 -->
      <g transform="translate(7.2 187.490625)scale(0.1 -0.1)">
       <defs>
        <path d="M 57.171875 0.984375 
L 6.984375 0.984375 
L 6.984375 9.28125 
Q 12.890625 23.046875 29.59375 34.421875 
L 32.375 36.28125 
Q 40.921875 42.140625 43.609375 45.40625 
Q 46.6875 49.265625 46.6875 53.8125 
Q 46.6875 58.9375 43.0625 62.546875 
Q 39.0625 66.546875 32.5625 66.546875 
Q 19.53125 66.546875 15.484375 52 
L 7.765625 54.78125 
Q 13.328125 73.828125 33.0625 73.828125 
Q 43.84375 73.828125 50.25 67.4375 
Q 55.859375 61.671875 55.859375 53.515625 
Q 55.859375 47.46875 52.25 42.53125 
Q 48.921875 37.75 36.96875 30.28125 
L 34.859375 29 
Q 19.625 19.578125 15.28125 8.890625 
L 57.171875 8.890625 
z
" id="IPAexGothic-50"/>
       </defs>
       <use xlink:href="#IPAexGothic-48"/>
       <use x="62.988281" xlink:href="#IPAexGothic-46"/>
       <use x="89.404297" xlink:href="#IPAexGothic-50"/>
      </g>
     </g>
    </g>
    <g id="ytick_3">
     <g id="line2d_11">
      <g>
       <use style="stroke:#000000;stroke-width:0.8;" x="29.439062" xlink:href="#mf0597bf3b1" y="140.545312"/>
      </g>
     </g>
     <g id="text_9">
      <!-- 0.4 -->
      <g transform="translate(7.2 144.290625)scale(0.1 -0.1)">
       <defs>
        <path d="M 59.578125 18.109375 
L 47.796875 18.109375 
L 47.796875 0.984375 
L 39.796875 0.984375 
L 39.796875 18.109375 
L 3.078125 18.109375 
L 3.078125 26.125 
L 38.375 73.09375 
L 47.796875 73.09375 
L 47.796875 25.53125 
L 59.578125 25.53125 
z
M 40.28125 64.203125 
L 39.984375 64.203125 
Q 35.59375 57.125 31.296875 51.3125 
L 11.859375 25.53125 
L 39.796875 25.53125 
L 39.796875 49.125 
Q 39.796875 54.390625 40.28125 64.203125 
z
" id="IPAexGothic-52"/>
       </defs>
       <use xlink:href="#IPAexGothic-48"/>
       <use x="62.988281" xlink:href="#IPAexGothic-46"/>
       <use x="89.404297" xlink:href="#IPAexGothic-52"/>
      </g>
     </g>
    </g>
    <g id="ytick_4">
     <g id="line2d_12">
      <g>
       <use style="stroke:#000000;stroke-width:0.8;" x="29.439062" xlink:href="#mf0597bf3b1" y="97.345312"/>
      </g>
     </g>
     <g id="text_10">
      <!-- 0.6 -->
      <g transform="translate(7.2 101.090625)scale(0.1 -0.1)">
       <defs>
        <path d="M 16.5 36.375 
Q 23.578125 46.578125 34.90625 46.578125 
Q 45.40625 46.578125 51.8125 39.265625 
Q 57.421875 32.90625 57.421875 23.78125 
Q 57.421875 13.8125 51.125 6.78125 
Q 44.578125 -0.484375 34.03125 -0.484375 
Q 21.484375 -0.484375 14.40625 9.078125 
Q 7.515625 18.40625 7.515625 34.8125 
Q 7.515625 53.515625 15.828125 64.203125 
Q 23.34375 73.828125 35.5 73.828125 
Q 49.859375 73.828125 56.390625 62.890625 
L 49.21875 58.984375 
Q 45.21875 66.65625 35.9375 66.65625 
Q 17.484375 66.65625 16.109375 36.375 
z
M 33.453125 39.796875 
Q 26.3125 39.796875 21.625 34.46875 
Q 17.4375 29.6875 17.4375 24.078125 
Q 17.4375 18.0625 21.140625 13.1875 
Q 26.125 6.6875 33.734375 6.6875 
Q 41.703125 6.6875 45.953125 13.1875 
Q 48.828125 17.625 48.828125 23.484375 
Q 48.828125 30.375 45.015625 34.8125 
Q 40.625 39.796875 33.453125 39.796875 
z
" id="IPAexGothic-54"/>
       </defs>
       <use xlink:href="#IPAexGothic-48"/>
       <use x="62.988281" xlink:href="#IPAexGothic-46"/>
       <use x="89.404297" xlink:href="#IPAexGothic-54"/>
      </g>
     </g>
    </g>
    <g id="ytick_5">
     <g id="line2d_13">
      <g>
       <use style="stroke:#000000;stroke-width:0.8;" x="29.439062" xlink:href="#mf0597bf3b1" y="54.145312"/>
      </g>
     </g>
     <g id="text_11">
      <!-- 0.8 -->
      <g transform="translate(7.2 57.890625)scale(0.1 -0.1)">
       <defs>
        <path d="M 39.703125 37.890625 
Q 57.8125 31.734375 57.8125 18.703125 
Q 57.8125 8.453125 48.4375 3.078125 
Q 41.609375 -0.875 31.5 -0.875 
Q 21.34375 -0.875 14.5 3.078125 
Q 5.421875 8.296875 5.421875 18.40625 
Q 5.421875 31.0625 22.015625 37.203125 
L 22.015625 37.5 
Q 7.515625 42.71875 7.515625 54.828125 
Q 7.515625 64.0625 15.328125 69.625 
Q 21.96875 74.3125 31.546875 74.3125 
Q 42.234375 74.3125 48.921875 68.796875 
Q 55.515625 63.578125 55.515625 55.71875 
Q 55.515625 42.28125 39.703125 38.1875 
z
M 31.59375 41.015625 
Q 46.828125 44.625 46.828125 55.125 
Q 46.828125 61.1875 41.796875 64.84375 
Q 37.703125 67.921875 31.5 67.921875 
Q 25.09375 67.921875 20.796875 64.5 
Q 16.40625 60.890625 16.40625 55.03125 
Q 16.40625 49.21875 21.09375 45.703125 
Q 23.34375 43.890625 26.90625 42.53125 
Q 31 40.875 31.59375 41.015625 
z
M 30.90625 34.515625 
Q 14.40625 30.171875 14.40625 19 
Q 14.40625 12.109375 20.515625 8.6875 
Q 25.09375 6.109375 31.390625 6.109375 
Q 40.234375 6.109375 45.015625 10.890625 
Q 48.53125 14.40625 48.53125 19.53125 
Q 48.53125 24.90625 43.65625 28.90625 
Q 40.765625 31.15625 36.71875 32.8125 
Q 31.984375 34.71875 30.90625 34.515625 
z
" id="IPAexGothic-56"/>
       </defs>
       <use xlink:href="#IPAexGothic-48"/>
       <use x="62.988281" xlink:href="#IPAexGothic-46"/>
       <use x="89.404297" xlink:href="#IPAexGothic-56"/>
      </g>
     </g>
    </g>
    <g id="ytick_6">
     <g id="line2d_14">
      <g>
       <use style="stroke:#000000;stroke-width:0.8;" x="29.439062" xlink:href="#mf0597bf3b1" y="10.945312"/>
      </g>
     </g>
     <g id="text_12">
      <!-- 1.0 -->
      <g transform="translate(7.2 14.690625)scale(0.1 -0.1)">
       <defs>
        <path d="M 38.484375 0.984375 
L 29.6875 0.984375 
L 29.6875 64.109375 
Q 21.4375 61.28125 12.3125 59.328125 
L 10.6875 66.109375 
Q 23.734375 69.390625 32.90625 73.921875 
L 38.484375 73.921875 
z
" id="IPAexGothic-49"/>
       </defs>
       <use xlink:href="#IPAexGothic-49"/>
       <use x="62.988281" xlink:href="#IPAexGothic-46"/>
       <use x="89.404297" xlink:href="#IPAexGothic-48"/>
      </g>
     </g>
    </g>
   </g>
   <g id="patch_15">
    <path d="M 29.439062 226.945312 
L 29.439062 10.945312 
" style="fill:none;stroke:#000000;stroke-linecap:square;stroke-linejoin:miter;stroke-width:0.8;"/>
   </g>
   <g id="patch_16">
    <path d="M 317.439062 226.945312 
L 317.439062 10.945312 
" style="fill:none;stroke:#000000;stroke-linecap:square;stroke-linejoin:miter;stroke-width:0.8;"/>
   </g>
   <g id="patch_17">
    <path d="M 29.439063 226.945312 
L 317.439062 226.945312 
" style="fill:none;stroke:#000000;stroke-linecap:square;stroke-linejoin:miter;stroke-width:0.8;"/>
   </g>
   <g id="patch_18">
    <path d="M 29.439063 10.945312 
L 317.439062 10.945312 
" style="fill:none;stroke:#000000;stroke-linecap:square;stroke-linejoin:miter;stroke-width:0.8;"/>
   </g>
   <g id="legend_1">
    <g id="patch_19">
     <path d="M 155.366562 40.514062 
L 311.839062 40.514062 
Q 313.439062 40.514062 313.439062 38.914062 
L 313.439062 16.545312 
Q 313.439062 14.945312 311.839062 14.945312 
L 155.366562 14.945312 
Q 153.766562 14.945312 153.766562 16.545312 
L 153.766562 38.914062 
Q 153.766562 40.514062 155.366562 40.514062 
z
" style="fill:#ffffff;opacity:0.8;stroke:#cccccc;stroke-linejoin:miter;"/>
    </g>
    <g id="patch_20">
     <path d="M 156.966562 24.281563 
L 172.966562 24.281563 
L 172.966562 18.681563 
L 156.966562 18.681563 
z
" style="fill:#008000;"/>
    </g>
    <g id="text_13">
     <!-- Dell(2000)Tab2. patient=G.L. -->
     <g transform="translate(179.366562 24.281563)scale(0.08 -0.08)">
      <defs>
       <path d="M 9.515625 72.40625 
L 31 72.40625 
Q 49.359375 72.40625 59.234375 63.28125 
Q 69.625 53.8125 69.625 36.8125 
Q 69.625 16.359375 54.9375 6.890625 
Q 45.703125 0.984375 30.328125 0.984375 
L 9.515625 0.984375 
z
M 18.3125 8.6875 
L 29.59375 8.6875 
Q 60.203125 8.6875 60.203125 36.8125 
Q 60.203125 64.796875 30.125 64.796875 
L 18.3125 64.796875 
z
" id="IPAexGothic-68"/>
       <path d="M 13.484375 24.90625 
Q 13.921875 16.265625 18.890625 11.28125 
Q 23.96875 6.203125 31.203125 6.203125 
Q 40.71875 6.203125 46.296875 15.09375 
L 51.90625 11.375 
Q 44.828125 -0.484375 30.171875 -0.484375 
Q 19.09375 -0.484375 11.96875 6.59375 
Q 4.78125 13.8125 4.78125 25.640625 
Q 4.78125 38.1875 12.3125 45.703125 
Q 19 52.390625 29 52.390625 
Q 38.421875 52.390625 44.78125 46.1875 
Q 51.90625 38.96875 51.90625 26.90625 
L 51.90625 24.90625 
z
M 43.0625 31.203125 
Q 42.328125 37.984375 38.28125 41.890625 
Q 34.28125 45.90625 28.8125 45.90625 
Q 22.46875 45.90625 17.96875 40.484375 
Q 14.890625 36.8125 13.96875 31.203125 
z
" id="IPAexGothic-101"/>
       <path d="M 17.671875 0.984375 
L 9.078125 0.984375 
L 9.078125 74.90625 
L 17.671875 74.90625 
z
" id="IPAexGothic-108"/>
       <path d="M 30.125 -15.875 
L 25.828125 -18.21875 
Q 7.625 1.078125 7.625 29.296875 
Q 7.625 57.46875 25.828125 76.703125 
L 30.125 74.421875 
Q 15.71875 55.03125 15.71875 29.390625 
Q 15.71875 3.171875 30.125 -15.875 
z
" id="IPAexGothic-40"/>
       <path d="M 7.28125 76.703125 
Q 25.59375 57.375 25.59375 29.296875 
Q 25.59375 1.171875 7.28125 -18.21875 
L 2.984375 -15.875 
Q 17.484375 3.375 17.484375 29.390625 
Q 17.484375 54.828125 2.984375 74.421875 
z
" id="IPAexGothic-41"/>
       <path d="M 60.40625 64.703125 
L 33.984375 64.703125 
L 33.984375 0.984375 
L 25.09375 0.984375 
L 25.09375 64.703125 
L -0.484375 64.703125 
L -0.484375 72.40625 
L 60.40625 72.40625 
z
" id="IPAexGothic-84"/>
       <path d="M 49.3125 0.984375 
L 41.75 0.984375 
Q 39.984375 4.734375 39.546875 8.6875 
L 39.203125 8.6875 
Q 33.546875 -0.390625 22.3125 -0.390625 
Q 14.59375 -0.390625 9.71875 4.5 
Q 5.421875 8.796875 5.421875 14.984375 
Q 5.421875 30.421875 32.03125 31.203125 
L 38.71875 31.390625 
L 38.71875 33.984375 
Q 38.71875 39.203125 35.75 42.1875 
Q 32.625 45.3125 27.734375 45.3125 
Q 19.34375 45.3125 15.140625 37.15625 
L 7.71875 40.578125 
Q 14.65625 52 27.9375 52 
Q 37.109375 52 42.046875 46.875 
Q 46.625 42.28125 46.625 33.890625 
L 46.625 15.578125 
Q 46.625 6.25 49.3125 0.984375 
z
M 38.921875 25.390625 
L 33.453125 25.296875 
Q 14.109375 24.859375 14.109375 14.890625 
Q 14.109375 11.375 16.40625 9.078125 
Q 19.234375 6.296875 23.828125 6.296875 
Q 30.21875 6.296875 34.90625 10.984375 
Q 38.921875 15.140625 38.921875 21 
z
" id="IPAexGothic-97"/>
       <path d="M 17.578125 42.671875 
Q 24.21875 52.203125 34.671875 52.203125 
Q 43.5625 52.203125 49.859375 45.90625 
Q 57.171875 38.578125 57.171875 25.6875 
Q 57.171875 13.09375 49.859375 5.8125 
Q 43.5625 -0.484375 34.46875 -0.484375 
Q 24.359375 -0.484375 17 8.0625 
L 15.765625 0.6875 
L 9.078125 0.6875 
L 9.078125 74.90625 
L 17.578125 74.90625 
z
M 17.578125 31.203125 
L 17.578125 19.578125 
Q 17.578125 13.875 23.875 9.375 
Q 28.171875 6.296875 33.109375 6.296875 
Q 38.875 6.296875 42.875 10.296875 
Q 48.1875 15.765625 48.1875 25.484375 
Q 48.1875 34.28125 43.796875 39.890625 
Q 39.453125 45.3125 33.203125 45.3125 
Q 27.484375 45.3125 22.46875 40.28125 
Q 17.578125 35.40625 17.578125 31.203125 
z
" id="IPAexGothic-98"/>
       <path id="IPAexGothic-32"/>
       <path d="M 16.796875 42 
Q 23.828125 52.203125 34.46875 52.203125 
Q 43.265625 52.203125 49.5625 45.90625 
Q 56.890625 38.578125 56.890625 25.6875 
Q 56.890625 13.140625 49.65625 5.8125 
Q 43.359375 -0.484375 34.375 -0.484375 
Q 24.515625 -0.484375 17.28125 7.765625 
L 17.28125 -19 
L 8.796875 -19 
L 8.796875 50.78125 
L 16.796875 50.78125 
z
M 17.28125 30.46875 
L 17.28125 20.171875 
Q 17.28125 14.015625 23.6875 9.375 
Q 27.984375 6.296875 32.90625 6.296875 
Q 38.578125 6.296875 42.578125 10.296875 
Q 47.90625 15.578125 47.90625 25.484375 
Q 47.90625 34.375 43.5 39.984375 
Q 39.109375 45.3125 32.8125 45.3125 
Q 25.875 45.3125 20.90625 38.8125 
Q 17.28125 34.125 17.28125 30.46875 
z
" id="IPAexGothic-112"/>
       <path d="M 33.203125 3.765625 
Q 27.640625 -0.09375 21.828125 -0.09375 
Q 10.203125 -0.09375 10.203125 12.984375 
L 10.203125 44.671875 
L 3.421875 44.671875 
L 3.421875 50.78125 
L 10.203125 50.78125 
L 10.203125 61.96875 
L 18.40625 66.0625 
L 18.40625 50.78125 
L 32.234375 50.78125 
L 32.234375 44.671875 
L 18.40625 44.671875 
L 18.40625 14.15625 
Q 18.40625 6.5 23.640625 6.5 
Q 27.15625 6.5 30.328125 9.1875 
z
" id="IPAexGothic-116"/>
       <path d="M 18.40625 61.375 
L 8.59375 61.375 
L 8.59375 71.390625 
L 18.40625 71.390625 
z
M 17.78125 0.984375 
L 9.1875 0.984375 
L 9.1875 50.78125 
L 17.78125 50.78125 
z
" id="IPAexGothic-105"/>
       <path d="M 52 0.984375 
L 43.40625 0.984375 
L 43.40625 31.890625 
Q 43.40625 44.578125 32.90625 44.578125 
Q 22.3125 44.578125 17.390625 31.890625 
L 17.390625 0.984375 
L 8.796875 0.984375 
L 8.796875 50.78125 
L 16.796875 50.78125 
L 16.796875 41.796875 
Q 23.828125 51.8125 34.71875 51.8125 
Q 52 51.8125 52 32.375 
z
" id="IPAexGothic-110"/>
       <path d="M 6.5 43.796875 
L 61.28125 43.796875 
L 61.28125 38.09375 
L 6.5 38.09375 
z
M 6.5 25.390625 
L 61.28125 25.390625 
L 61.28125 19.671875 
L 6.5 19.671875 
z
" id="IPAexGothic-61"/>
       <path d="M 68.796875 12.203125 
Q 65.1875 7.71875 58.296875 3.90625 
Q 50.140625 -0.484375 40.484375 -0.484375 
Q 25.09375 -0.484375 15.4375 9.8125 
Q 5.90625 19.921875 5.90625 36.328125 
Q 5.90625 53.21875 15.828125 63.71875 
Q 25.296875 73.828125 39.59375 73.828125 
Q 59.375 73.828125 67.578125 56.6875 
L 59.625 52.984375 
Q 53.46875 66.21875 39.703125 66.21875 
Q 29.546875 66.21875 22.703125 58.5 
Q 15.53125 50.25 15.53125 36.375 
Q 15.53125 23.921875 21.828125 15.96875 
Q 28.8125 7.171875 41.015625 7.171875 
Q 54.046875 7.171875 60.59375 15.09375 
L 60.59375 29 
L 44.671875 29 
L 44.671875 35.796875 
L 68.796875 35.796875 
z
" id="IPAexGothic-71"/>
       <path d="M 52.296875 0.984375 
L 9.515625 0.984375 
L 9.515625 72.40625 
L 18.40625 72.40625 
L 18.40625 8.796875 
L 52.296875 8.796875 
z
" id="IPAexGothic-76"/>
      </defs>
      <use xlink:href="#IPAexGothic-68"/>
      <use x="75.683594" xlink:href="#IPAexGothic-101"/>
      <use x="132.568359" xlink:href="#IPAexGothic-108"/>
      <use x="159.570312" xlink:href="#IPAexGothic-108"/>
      <use x="186.572266" xlink:href="#IPAexGothic-40"/>
      <use x="219.873047" xlink:href="#IPAexGothic-50"/>
      <use x="282.861328" xlink:href="#IPAexGothic-48"/>
      <use x="345.849609" xlink:href="#IPAexGothic-48"/>
      <use x="408.837891" xlink:href="#IPAexGothic-48"/>
      <use x="471.826172" xlink:href="#IPAexGothic-41"/>
      <use x="505.126953" xlink:href="#IPAexGothic-84"/>
      <use x="565.039062" xlink:href="#IPAexGothic-97"/>
      <use x="620.019531" xlink:href="#IPAexGothic-98"/>
      <use x="682.421875" xlink:href="#IPAexGothic-50"/>
      <use x="745.410156" xlink:href="#IPAexGothic-46"/>
      <use x="771.826172" xlink:href="#IPAexGothic-32"/>
      <use x="798.828125" xlink:href="#IPAexGothic-112"/>
      <use x="860.9375" xlink:href="#IPAexGothic-97"/>
      <use x="915.917969" xlink:href="#IPAexGothic-116"/>
      <use x="950.537109" xlink:href="#IPAexGothic-105"/>
      <use x="977.539062" xlink:href="#IPAexGothic-101"/>
      <use x="1034.423828" xlink:href="#IPAexGothic-110"/>
      <use x="1094.824219" xlink:href="#IPAexGothic-116"/>
      <use x="1129.443359" xlink:href="#IPAexGothic-61"/>
      <use x="1197.265625" xlink:href="#IPAexGothic-71"/>
      <use x="1272.558594" xlink:href="#IPAexGothic-46"/>
      <use x="1298.974609" xlink:href="#IPAexGothic-76"/>
      <use x="1351.5625" xlink:href="#IPAexGothic-46"/>
     </g>
    </g>
    <g id="patch_21">
     <path d="M 156.966562 35.794062 
L 172.966562 35.794062 
L 172.966562 30.194062 
L 156.966562 30.194062 
z
" style="fill:#ff0000;"/>
    </g>
    <g id="text_14">
     <!-- beta 調整後のシミュレーション結果 -->
     <g transform="translate(179.366562 35.794062)scale(0.08 -0.08)">
      <defs>
       <path d="M 79.390625 35.109375 
L 79.390625 12.109375 
L 59.46875 12.109375 
L 59.46875 6.6875 
L 53.46875 6.6875 
L 53.46875 35.109375 
z
M 59.46875 29.78125 
L 59.46875 17.4375 
L 73.390625 17.4375 
L 73.390625 29.78125 
z
M 33.984375 26.3125 
L 33.984375 -1.125 
L 13.96875 -1.125 
L 13.96875 -7.03125 
L 7.5625 -7.03125 
L 7.5625 26.3125 
z
M 13.96875 20.515625 
L 13.96875 4.6875 
L 27.6875 4.6875 
L 27.6875 20.515625 
z
M 91.796875 77.875 
L 91.796875 2 
Q 91.796875 -5.515625 84.328125 -5.515625 
Q 79.4375 -5.515625 73 -4.890625 
L 71.921875 2 
Q 77.59375 1.078125 81.890625 1.078125 
Q 85.203125 1.078125 85.203125 4.390625 
L 85.203125 71.875 
L 48.09375 71.875 
L 48.09375 47.265625 
Q 48.09375 23.046875 46.875 12.984375 
Q 45.515625 0.921875 40.71875 -8.015625 
L 35.015625 -3.328125 
Q 39.5 5.71875 40.71875 18.796875 
Q 41.609375 27.78125 41.609375 43.796875 
L 41.609375 77.875 
z
M 63.1875 60.890625 
L 63.1875 69.1875 
L 69.390625 69.1875 
L 69.390625 60.890625 
L 80.46875 60.890625 
L 80.46875 55.375 
L 69.390625 55.375 
L 69.390625 47.015625 
L 82.28125 47.015625 
L 82.28125 41.609375 
L 51.078125 41.609375 
L 51.078125 47.015625 
L 63.1875 47.015625 
L 63.1875 55.375 
L 52.78125 55.375 
L 52.78125 60.890625 
z
M 8.890625 78.8125 
L 32.765625 78.8125 
L 32.765625 72.796875 
L 8.890625 72.796875 
z
M 4.890625 65.71875 
L 36.96875 65.71875 
L 36.96875 59.625 
L 4.890625 59.625 
z
M 8.890625 52.484375 
L 32.765625 52.484375 
L 32.765625 46.484375 
L 8.890625 46.484375 
z
M 8.890625 39.40625 
L 32.765625 39.40625 
L 32.765625 33.40625 
L 8.890625 33.40625 
z
" id="IPAexGothic-35519"/>
       <path d="M 26.46875 45.171875 
Q 20.265625 36.921875 10.0625 31.203125 
L 5.5625 36.375 
Q 16.0625 41.015625 22.953125 48.390625 
L 10.0625 48.390625 
L 10.0625 65.484375 
L 26.46875 65.484375 
L 26.46875 70.265625 
L 6.453125 70.265625 
L 6.453125 75.59375 
L 26.46875 75.59375 
L 26.46875 83.015625 
L 32.953125 83.015625 
L 32.953125 75.59375 
L 52.6875 75.59375 
L 52.6875 70.265625 
L 32.953125 70.265625 
L 32.953125 65.484375 
L 49.703125 65.484375 
L 49.703125 48.390625 
L 32.953125 48.390625 
L 32.953125 46.296875 
Q 40.921875 44.34375 49.8125 39.984375 
L 45.515625 34.46875 
Q 40.875 38.03125 32.953125 41.703125 
L 32.953125 30.8125 
L 26.46875 30.8125 
z
M 26.65625 60.6875 
L 16.265625 60.6875 
L 16.265625 53.078125 
L 26.65625 53.078125 
z
M 32.765625 60.6875 
L 32.765625 53.078125 
L 43.5 53.078125 
L 43.5 60.6875 
z
M 69.578125 47.125 
Q 64.84375 52.4375 61.078125 59.8125 
Q 59.234375 56.734375 56.109375 53.078125 
L 51.8125 58.109375 
Q 60.40625 69.140625 63.671875 83.796875 
L 70.453125 82.328125 
Q 69.09375 76.375 67.390625 72.40625 
L 93.703125 72.40625 
L 93.703125 66.703125 
L 86.28125 66.703125 
Q 83.84375 55.609375 77.875 47.40625 
Q 84.90625 41.609375 94.875 37.796875 
L 90.578125 31.984375 
Q 81 36.328125 73.875 42.671875 
Q 66.65625 35.296875 55.078125 30.515625 
L 50.875 35.890625 
Q 62.203125 39.59375 69.578125 47.125 
z
M 73.296875 51.703125 
Q 77.78125 58.109375 79.78125 66.703125 
L 64.796875 66.703125 
L 64.3125 65.484375 
Q 67.4375 58.15625 73.296875 51.703125 
z
M 53.5625 1.421875 
L 94.96875 1.421875 
L 94.96875 -4.5 
L 4.890625 -4.5 
L 4.890625 1.421875 
L 24.265625 1.421875 
L 24.265625 17 
L 31.15625 17 
L 31.15625 1.421875 
L 46.6875 1.421875 
L 46.6875 22.078125 
L 9.96875 22.078125 
L 9.96875 27.875 
L 89.984375 27.875 
L 89.984375 22.078125 
L 53.5625 22.078125 
L 53.5625 14.984375 
L 82.375 14.984375 
L 82.375 9.1875 
L 53.5625 9.1875 
z
" id="IPAexGothic-25972"/>
       <path d="M 51.703125 38.671875 
Q 49.75 38.578125 35.796875 37.890625 
L 33.203125 44.671875 
Q 41.015625 44.671875 44.09375 44.78125 
L 49.515625 44.96875 
L 54.5 49.90625 
Q 45.171875 60.0625 37.109375 66.21875 
L 42.1875 71.296875 
Q 44.96875 68.890625 48.390625 65.484375 
Q 55.671875 74.703125 59.8125 82.765625 
L 66.609375 79.296875 
Q 60.203125 69.234375 52.59375 61.1875 
Q 55.28125 58.5 58.890625 54.296875 
Q 68.21875 64.203125 74.3125 72.609375 
L 80.90625 68.609375 
Q 70.703125 56.15625 58.109375 45.171875 
L 70.609375 45.703125 
Q 78.46875 46.09375 81.203125 46.296875 
Q 77.78125 51.8125 74.078125 56.109375 
L 79.78125 59.28125 
Q 87.59375 49.953125 93.3125 39.3125 
L 87.015625 35.296875 
Q 85.84375 37.9375 84.078125 41.21875 
Q 83.796875 41.109375 82.953125 41.0625 
Q 82.171875 41.015625 81.78125 40.96875 
Q 74.078125 40.09375 59.46875 39.203125 
Q 58.25 36.53125 55.46875 31.890625 
L 78.90625 31.890625 
L 83.109375 27.984375 
Q 77.78125 17.53125 69.390625 9.859375 
Q 79.203125 4 93.5 0.390625 
L 88.484375 -6.546875 
Q 73.96875 -1.65625 64.203125 5.28125 
Q 52.6875 -3.515625 34.28125 -8.296875 
L 29.6875 -1.8125 
Q 47.015625 1.03125 58.984375 9.28125 
Q 52.046875 15.140625 47.703125 21.1875 
Q 41.609375 14.0625 35.296875 9.765625 
L 30.609375 14.703125 
Q 44.34375 24.359375 51.703125 38.671875 
z
M 64.203125 13.484375 
Q 70.75 19.4375 73.875 25.875 
L 51.90625 25.875 
Q 56.453125 19.734375 64.203125 13.484375 
z
M 24.8125 43.015625 
L 24.8125 -6.984375 
L 17.921875 -6.984375 
L 17.921875 34.515625 
Q 13.578125 29.546875 8.59375 25.203125 
L 3.90625 30.421875 
Q 19 43.84375 28.171875 61.53125 
L 34.46875 58.40625 
Q 29.78125 49.8125 24.8125 43.015625 
z
M 4.59375 58.0625 
Q 18.953125 68.359375 25.984375 81.390625 
L 32.46875 78.078125 
Q 23.046875 62.75 9.1875 52.6875 
z
" id="IPAexGothic-24460"/>
       <path d="M 48.734375 7.328125 
Q 82.421875 11.96875 82.421875 37.890625 
Q 82.421875 53.953125 68.953125 61.328125 
Q 63.140625 64.3125 55.421875 64.984375 
Q 53.03125 39.453125 44.53125 21.875 
Q 36.28125 4.78125 26.90625 4.78125 
Q 21.625 4.78125 16.9375 10.40625 
Q 9.515625 19.4375 9.515625 31.296875 
Q 9.515625 47.265625 21.828125 59.28125 
Q 34.125 71.296875 53.609375 71.296875 
Q 67.28125 71.296875 77 64.40625 
Q 90.828125 54.78125 90.828125 37.890625 
Q 90.828125 6.84375 53.609375 0.09375 
z
M 47.703125 64.796875 
Q 37.15625 63.1875 29.546875 56.890625 
Q 17.140625 46.578125 17.140625 31.109375 
Q 17.140625 21.34375 22.40625 15.28125 
Q 24.703125 12.703125 26.859375 12.703125 
Q 31.59375 12.703125 37.75 25.390625 
Q 45.453125 41.21875 47.703125 64.796875 
z
" id="IPAexGothic-12398"/>
       <path d="M 44.1875 55.171875 
Q 34.671875 63.375 25.203125 68.109375 
L 29.890625 74.703125 
Q 39.109375 70.171875 49.515625 62.203125 
z
M 18.171875 7.8125 
Q 61.625 17.09375 83.40625 55.078125 
L 88.875 48.875 
Q 67.140625 10.9375 23.1875 0 
z
M 32.375 35.59375 
Q 22.90625 43.75 12.984375 48.578125 
L 17.671875 55.328125 
Q 28.21875 50.203125 37.59375 42.578125 
z
" id="IPAexGothic-12471"/>
       <path d="M 71.96875 52.390625 
Q 47.21875 62.9375 25 68.359375 
L 29.5 75.09375 
Q 53.171875 69.140625 76.265625 59.578125 
z
M 65.375 29.109375 
Q 45.40625 38.53125 27.296875 43.171875 
L 31.6875 50.203125 
Q 49.515625 45.359375 69.78125 36.375 
z
M 72.359375 -2.484375 
Q 48.734375 9.96875 17.578125 19.28125 
L 22.078125 26.21875 
Q 50.4375 18.265625 77.390625 4.984375 
z
" id="IPAexGothic-12511"/>
       <path d="M 25.875 51.515625 
L 67.390625 51.515625 
Q 66.453125 35.75 63.71875 13.578125 
L 83.109375 13.578125 
L 83.109375 6.59375 
L 16.796875 6.59375 
L 16.796875 13.578125 
L 55.90625 13.578125 
Q 58.203125 32.328125 58.984375 44.625 
L 25.875 44.625 
z
" id="IPAexGothic-12517"/>
       <path d="M 24.03125 73.53125 
L 32.421875 73.53125 
L 32.421875 9.71875 
Q 63.421875 21.484375 80.8125 45.21875 
L 85.640625 37.984375 
Q 76.90625 26.21875 61.421875 15.921875 
Q 45.609375 5.21875 30.125 -0.484375 
L 24.03125 4.203125 
z
" id="IPAexGothic-12524"/>
       <path d="M 25.390625 54.203125 
L 72.703125 54.203125 
L 72.703125 0 
L 65.1875 0 
L 65.1875 4.59375 
L 24.265625 4.59375 
L 24.265625 11.765625 
L 65.1875 11.765625 
L 65.1875 27.09375 
L 27.59375 27.09375 
L 27.59375 33.890625 
L 65.1875 33.890625 
L 65.1875 47.3125 
L 25.390625 47.3125 
z
" id="IPAexGothic-12519"/>
       <path d="M 38.1875 48.1875 
Q 28.375 57.125 16.5 63.8125 
L 21.578125 70.609375 
Q 32.234375 65.484375 44 55.609375 
z
M 17.1875 9.515625 
Q 62.25 17.28125 81.5 59.8125 
L 87.796875 54.203125 
Q 68.953125 12.40625 22.40625 1.609375 
z
" id="IPAexGothic-12531"/>
       <path d="M 19.390625 48.1875 
Q 12.40625 58.015625 5.90625 64.5 
L 10.40625 69.09375 
Q 12.9375 66.546875 14.3125 64.890625 
Q 20.3125 74.21875 24.078125 83.296875 
L 30.5625 79.984375 
Q 24.171875 68.171875 17.96875 60.296875 
Q 19.1875 58.734375 22.90625 53.515625 
Q 28.8125 62.75 33.40625 71.09375 
L 39.40625 67.390625 
Q 28.953125 50.203125 20.515625 40.1875 
Q 25.734375 40.328125 35.203125 41.109375 
Q 33.34375 45.453125 31.390625 49.3125 
L 36.765625 51.609375 
Q 41.5 43.359375 44.96875 32.90625 
L 38.96875 30.078125 
Q 38.578125 31.59375 37.890625 33.6875 
Q 37.25 35.6875 37.0625 36.28125 
Q 36.46875 36.234375 34.71875 35.9375 
Q 30.71875 35.296875 27.78125 34.90625 
L 27.78125 -6.984375 
L 21.296875 -6.984375 
L 21.296875 34.078125 
L 20.171875 33.984375 
Q 15.625 33.5 6.6875 32.90625 
L 4.390625 39.59375 
Q 10.5 39.796875 13.484375 39.890625 
Q 14.203125 40.828125 15.1875 42.1875 
Q 16.546875 44 19.390625 48.1875 
z
M 64.59375 67.578125 
L 64.59375 82.953125 
L 71.296875 82.953125 
L 71.296875 67.578125 
L 95.515625 67.578125 
L 95.515625 61.46875 
L 71.296875 61.46875 
L 71.296875 47.40625 
L 92.28125 47.40625 
L 92.28125 41.40625 
L 44.671875 41.40625 
L 44.671875 47.40625 
L 64.59375 47.40625 
L 64.59375 61.46875 
L 42.484375 61.46875 
L 42.484375 67.578125 
z
M 87.984375 31.203125 
L 87.984375 -7.03125 
L 81.296875 -7.03125 
L 81.296875 -1.609375 
L 55.46875 -1.609375 
L 55.46875 -7.03125 
L 48.78125 -7.03125 
L 48.78125 31.203125 
z
M 55.46875 25.203125 
L 55.46875 4.390625 
L 81.296875 4.390625 
L 81.296875 25.203125 
z
M 5.515625 3.078125 
Q 9.078125 13.484375 10.109375 27.484375 
L 16.5 26.703125 
Q 15.4375 11.078125 12.015625 -0.203125 
z
M 36.46875 4.890625 
Q 34.46875 17.921875 31.203125 27.484375 
L 36.921875 29.203125 
Q 40.765625 19.578125 43.21875 7.625 
z
" id="IPAexGothic-32080"/>
       <path d="M 59.515625 26.03125 
Q 72.75 12.5 95.125 4.640625 
L 90.375 -2.046875 
Q 66.5 7.71875 53.21875 24.421875 
L 53.21875 -6.984375 
L 46.046875 -6.984375 
L 46.046875 23.734375 
Q 34.421875 6.640625 10.109375 -4.390625 
L 5.21875 1.703125 
Q 27.640625 10.890625 40.234375 26.03125 
L 5.90625 26.03125 
L 5.90625 32.421875 
L 46.046875 32.421875 
L 46.046875 41.015625 
L 17.328125 41.015625 
L 17.328125 78.328125 
L 82.625 78.328125 
L 82.625 41.015625 
L 53.21875 41.015625 
L 53.21875 32.421875 
L 94 32.421875 
L 94 26.03125 
z
M 24.3125 72.3125 
L 24.3125 62.40625 
L 46.234375 62.40625 
L 46.234375 72.3125 
z
M 24.3125 56.6875 
L 24.3125 47.015625 
L 46.234375 47.015625 
L 46.234375 56.6875 
z
M 75.53125 47.015625 
L 75.53125 56.6875 
L 53.03125 56.6875 
L 53.03125 47.015625 
z
M 75.53125 62.40625 
L 75.53125 72.3125 
L 53.03125 72.3125 
L 53.03125 62.40625 
z
" id="IPAexGothic-26524"/>
      </defs>
      <use xlink:href="#IPAexGothic-98"/>
      <use x="62.402344" xlink:href="#IPAexGothic-101"/>
      <use x="119.287109" xlink:href="#IPAexGothic-116"/>
      <use x="153.90625" xlink:href="#IPAexGothic-97"/>
      <use x="208.886719" xlink:href="#IPAexGothic-32"/>
      <use x="235.888672" xlink:href="#IPAexGothic-35519"/>
      <use x="335.888672" xlink:href="#IPAexGothic-25972"/>
      <use x="435.888672" xlink:href="#IPAexGothic-24460"/>
      <use x="535.888672" xlink:href="#IPAexGothic-12398"/>
      <use x="635.888672" xlink:href="#IPAexGothic-12471"/>
      <use x="735.888672" xlink:href="#IPAexGothic-12511"/>
      <use x="835.888672" xlink:href="#IPAexGothic-12517"/>
      <use x="935.888672" xlink:href="#IPAexGothic-12524"/>
      <use x="1035.888672" xlink:href="#IPAexGothic-12540"/>
      <use x="1135.888672" xlink:href="#IPAexGothic-12471"/>
      <use x="1235.888672" xlink:href="#IPAexGothic-12519"/>
      <use x="1335.888672" xlink:href="#IPAexGothic-12531"/>
      <use x="1435.888672" xlink:href="#IPAexGothic-32080"/>
      <use x="1535.888672" xlink:href="#IPAexGothic-26524"/>
     </g>
    </g>
   </g>
  </g>
 </g>
 <defs>
  <clipPath id="p3ca10f9e91">
   <rect height="216" width="288" x="29.439062" y="10.945312"/>
  </clipPath>
 </defs>
</svg>
