<?xml version="1.0" encoding="utf-8" standalone="no"?>
<!DOCTYPE svg PUBLIC "-//W3C//DTD SVG 1.1//EN"
  "http://www.w3.org/Graphics/SVG/1.1/DTD/svg11.dtd">
<!-- Created with matplotlib (https://matplotlib.org/) -->
<svg height="432pt" version="1.1" viewBox="0 0 576 432" width="576pt" xmlns="http://www.w3.org/2000/svg" xmlns:xlink="http://www.w3.org/1999/xlink">
 <metadata>
  <rdf:RDF xmlns:cc="http://creativecommons.org/ns#" xmlns:dc="http://purl.org/dc/elements/1.1/" xmlns:rdf="http://www.w3.org/1999/02/22-rdf-syntax-ns#">
   <cc:Work>
    <dc:type rdf:resource="http://purl.org/dc/dcmitype/StillImage"/>
    <dc:date>2021-08-12T10:40:40.507621</dc:date>
    <dc:format>image/svg+xml</dc:format>
    <dc:creator>
     <cc:Agent>
      <dc:title>Matplotlib v3.3.1, https://matplotlib.org/</dc:title>
     </cc:Agent>
    </dc:creator>
   </cc:Work>
  </rdf:RDF>
 </metadata>
 <defs>
  <style type="text/css">*{stroke-linecap:butt;stroke-linejoin:round;}</style>
 </defs>
 <g id="figure_1">
  <g id="patch_1">
   <path d="M 0 432 
L 576 432 
L 576 0 
L 0 0 
z
" style="fill:none;"/>
  </g>
  <g id="axes_1">
   <g id="patch_2">
    <path d="M 72 378 
L 518.4 378 
L 518.4 51.84 
L 72 51.84 
z
" style="fill:#ffffff;"/>
   </g>
   <g id="matplotlib.axis_1">
    <g id="xtick_1">
     <g id="line2d_1">
      <defs>
       <path d="M 0 0 
L 0 3.5 
" id="mdec5b337e5" style="stroke:#000000;stroke-width:0.8;"/>
      </defs>
      <g>
       <use style="stroke:#000000;stroke-width:0.8;" x="92.290909" xlink:href="#mdec5b337e5" y="378"/>
      </g>
     </g>
     <g id="text_1">
      <!-- −4 -->
      <g transform="translate(85.750284 392.490625)scale(0.1 -0.1)">
       <defs>
        <path d="M 6.5 34.71875 
L 61.28125 34.71875 
L 61.28125 29 
L 6.5 29 
z
" id="IPAexGothic-8722"/>
        <path d="M 59.578125 18.109375 
L 47.796875 18.109375 
L 47.796875 0.984375 
L 39.796875 0.984375 
L 39.796875 18.109375 
L 3.078125 18.109375 
L 3.078125 26.125 
L 38.375 73.09375 
L 47.796875 73.09375 
L 47.796875 25.53125 
L 59.578125 25.53125 
z
M 40.28125 64.203125 
L 39.984375 64.203125 
Q 35.59375 57.125 31.296875 51.3125 
L 11.859375 25.53125 
L 39.796875 25.53125 
L 39.796875 49.125 
Q 39.796875 54.390625 40.28125 64.203125 
z
" id="IPAexGothic-52"/>
       </defs>
       <use xlink:href="#IPAexGothic-8722"/>
       <use x="67.822266" xlink:href="#IPAexGothic-52"/>
      </g>
     </g>
    </g>
    <g id="xtick_2">
     <g id="line2d_2">
      <g>
       <use style="stroke:#000000;stroke-width:0.8;" x="143.018182" xlink:href="#mdec5b337e5" y="378"/>
      </g>
     </g>
     <g id="text_2">
      <!-- −3 -->
      <g transform="translate(136.477557 392.490625)scale(0.1 -0.1)">
       <defs>
        <path d="M 37.203125 37.796875 
Q 54.78125 34.625 54.78125 19.96875 
Q 54.78125 11.1875 48.875 5.5625 
Q 42.328125 -0.484375 30.375 -0.484375 
Q 12.453125 -0.484375 4.5 13.765625 
L 11.8125 17.671875 
Q 17.328125 6.890625 30.28125 6.890625 
Q 37.890625 6.890625 42.09375 10.796875 
Q 46.09375 14.5 46.09375 20.171875 
Q 46.09375 26.859375 40.09375 30.90625 
Q 34.625 34.578125 25.6875 34.578125 
L 21.296875 34.578125 
L 21.296875 41.703125 
L 25.875 41.703125 
Q 34.859375 41.703125 39.59375 45.125 
Q 44.671875 48.734375 44.671875 54.828125 
Q 44.671875 61.46875 38.96875 64.65625 
Q 35.296875 66.84375 30.171875 66.84375 
Q 19.34375 66.84375 14.109375 55.90625 
L 6.78125 59.421875 
Q 14.015625 73.828125 30.28125 73.828125 
Q 40.578125 73.828125 46.96875 68.65625 
Q 53.375 63.578125 53.375 55.21875 
Q 53.375 47.3125 47.171875 42.28125 
Q 43.171875 39.0625 37.203125 38.1875 
z
" id="IPAexGothic-51"/>
       </defs>
       <use xlink:href="#IPAexGothic-8722"/>
       <use x="67.822266" xlink:href="#IPAexGothic-51"/>
      </g>
     </g>
    </g>
    <g id="xtick_3">
     <g id="line2d_3">
      <g>
       <use style="stroke:#000000;stroke-width:0.8;" x="193.745455" xlink:href="#mdec5b337e5" y="378"/>
      </g>
     </g>
     <g id="text_3">
      <!-- −2 -->
      <g transform="translate(187.20483 392.490625)scale(0.1 -0.1)">
       <defs>
        <path d="M 57.171875 0.984375 
L 6.984375 0.984375 
L 6.984375 9.28125 
Q 12.890625 23.046875 29.59375 34.421875 
L 32.375 36.28125 
Q 40.921875 42.140625 43.609375 45.40625 
Q 46.6875 49.265625 46.6875 53.8125 
Q 46.6875 58.9375 43.0625 62.546875 
Q 39.0625 66.546875 32.5625 66.546875 
Q 19.53125 66.546875 15.484375 52 
L 7.765625 54.78125 
Q 13.328125 73.828125 33.0625 73.828125 
Q 43.84375 73.828125 50.25 67.4375 
Q 55.859375 61.671875 55.859375 53.515625 
Q 55.859375 47.46875 52.25 42.53125 
Q 48.921875 37.75 36.96875 30.28125 
L 34.859375 29 
Q 19.625 19.578125 15.28125 8.890625 
L 57.171875 8.890625 
z
" id="IPAexGothic-50"/>
       </defs>
       <use xlink:href="#IPAexGothic-8722"/>
       <use x="67.822266" xlink:href="#IPAexGothic-50"/>
      </g>
     </g>
    </g>
    <g id="xtick_4">
     <g id="line2d_4">
      <g>
       <use style="stroke:#000000;stroke-width:0.8;" x="244.472727" xlink:href="#mdec5b337e5" y="378"/>
      </g>
     </g>
     <g id="text_4">
      <!-- −1 -->
      <g transform="translate(237.932102 392.490625)scale(0.1 -0.1)">
       <defs>
        <path d="M 38.484375 0.984375 
L 29.6875 0.984375 
L 29.6875 64.109375 
Q 21.4375 61.28125 12.3125 59.328125 
L 10.6875 66.109375 
Q 23.734375 69.390625 32.90625 73.921875 
L 38.484375 73.921875 
z
" id="IPAexGothic-49"/>
       </defs>
       <use xlink:href="#IPAexGothic-8722"/>
       <use x="67.822266" xlink:href="#IPAexGothic-49"/>
      </g>
     </g>
    </g>
    <g id="xtick_5">
     <g id="line2d_5">
      <g>
       <use style="stroke:#000000;stroke-width:0.8;" x="295.2" xlink:href="#mdec5b337e5" y="378"/>
      </g>
     </g>
     <g id="text_5">
      <!-- 0 -->
      <g transform="translate(292.050781 392.490625)scale(0.1 -0.1)">
       <defs>
        <path d="M 31.84375 73.828125 
Q 45.015625 73.828125 52.09375 61.625 
Q 57.71875 51.953125 57.71875 36.625 
Q 57.71875 21.4375 52.09375 11.578125 
Q 45.125 -0.484375 31.5 -0.484375 
Q 17.921875 -0.484375 10.9375 11.578125 
Q 5.328125 21.4375 5.328125 36.71875 
Q 5.328125 58.015625 15.625 67.71875 
Q 22.171875 73.828125 31.84375 73.828125 
z
M 31.5 66.65625 
Q 23.6875 66.65625 19.1875 58.734375 
Q 14.59375 50.734375 14.59375 36.625 
Q 14.59375 22.75 19.09375 14.796875 
Q 23.640625 6.984375 31.5 6.984375 
Q 40.921875 6.984375 45.453125 18.015625 
Q 48.4375 25.34375 48.4375 37.109375 
Q 48.4375 50.875 43.84375 58.734375 
Q 39.203125 66.65625 31.5 66.65625 
z
" id="IPAexGothic-48"/>
       </defs>
       <use xlink:href="#IPAexGothic-48"/>
      </g>
     </g>
    </g>
    <g id="xtick_6">
     <g id="line2d_6">
      <g>
       <use style="stroke:#000000;stroke-width:0.8;" x="345.927273" xlink:href="#mdec5b337e5" y="378"/>
      </g>
     </g>
     <g id="text_6">
      <!-- 1 -->
      <g transform="translate(342.778054 392.490625)scale(0.1 -0.1)">
       <use xlink:href="#IPAexGothic-49"/>
      </g>
     </g>
    </g>
    <g id="xtick_7">
     <g id="line2d_7">
      <g>
       <use style="stroke:#000000;stroke-width:0.8;" x="396.654545" xlink:href="#mdec5b337e5" y="378"/>
      </g>
     </g>
     <g id="text_7">
      <!-- 2 -->
      <g transform="translate(393.505327 392.490625)scale(0.1 -0.1)">
       <use xlink:href="#IPAexGothic-50"/>
      </g>
     </g>
    </g>
    <g id="xtick_8">
     <g id="line2d_8">
      <g>
       <use style="stroke:#000000;stroke-width:0.8;" x="447.381818" xlink:href="#mdec5b337e5" y="378"/>
      </g>
     </g>
     <g id="text_8">
      <!-- 3 -->
      <g transform="translate(444.232599 392.490625)scale(0.1 -0.1)">
       <use xlink:href="#IPAexGothic-51"/>
      </g>
     </g>
    </g>
    <g id="xtick_9">
     <g id="line2d_9">
      <g>
       <use style="stroke:#000000;stroke-width:0.8;" x="498.109091" xlink:href="#mdec5b337e5" y="378"/>
      </g>
     </g>
     <g id="text_9">
      <!-- 4 -->
      <g transform="translate(494.959872 392.490625)scale(0.1 -0.1)">
       <use xlink:href="#IPAexGothic-52"/>
      </g>
     </g>
    </g>
   </g>
   <g id="matplotlib.axis_2">
    <g id="ytick_1">
     <g id="line2d_10">
      <defs>
       <path d="M 0 0 
L -3.5 0 
" id="md02f538ecb" style="stroke:#000000;stroke-width:0.8;"/>
      </defs>
      <g>
       <use style="stroke:#000000;stroke-width:0.8;" x="72" xlink:href="#md02f538ecb" y="363.274055"/>
      </g>
     </g>
     <g id="text_10">
      <!-- 0.00 -->
      <g transform="translate(43.4625 367.019368)scale(0.1 -0.1)">
       <defs>
        <path d="M 18.5 0.984375 
L 7.71875 0.984375 
L 7.71875 11.765625 
L 18.5 11.765625 
z
" id="IPAexGothic-46"/>
       </defs>
       <use xlink:href="#IPAexGothic-48"/>
       <use x="62.988281" xlink:href="#IPAexGothic-46"/>
       <use x="89.404297" xlink:href="#IPAexGothic-48"/>
       <use x="152.392578" xlink:href="#IPAexGothic-48"/>
      </g>
     </g>
    </g>
    <g id="ytick_2">
     <g id="line2d_11">
      <g>
       <use style="stroke:#000000;stroke-width:0.8;" x="72" xlink:href="#md02f538ecb" y="326.096354"/>
      </g>
     </g>
     <g id="text_11">
      <!-- 0.05 -->
      <g transform="translate(43.4625 329.841666)scale(0.1 -0.1)">
       <defs>
        <path d="M 18.40625 40.671875 
Q 25.53125 46.296875 33.9375 46.296875 
Q 44 46.296875 50.640625 39.5 
Q 56.84375 33.015625 56.84375 23.390625 
Q 56.84375 14.65625 51.515625 8.015625 
Q 44.828125 -0.484375 31.734375 -0.484375 
Q 14.984375 -0.484375 7.328125 12.25 
L 14.65625 16.0625 
Q 20.453125 6.78125 31.453125 6.78125 
Q 38.53125 6.78125 43.265625 11.1875 
Q 48.140625 15.828125 48.140625 23.484375 
Q 48.140625 30.71875 43.84375 35.015625 
Q 39.359375 39.5 32.125 39.5 
Q 21.96875 39.5 16.75 31.6875 
L 9.234375 32.671875 
L 13.8125 72.40625 
L 53.21875 72.40625 
L 53.21875 64.890625 
L 20.953125 64.890625 
L 17.71875 40.671875 
z
" id="IPAexGothic-53"/>
       </defs>
       <use xlink:href="#IPAexGothic-48"/>
       <use x="62.988281" xlink:href="#IPAexGothic-46"/>
       <use x="89.404297" xlink:href="#IPAexGothic-48"/>
       <use x="152.392578" xlink:href="#IPAexGothic-53"/>
      </g>
     </g>
    </g>
    <g id="ytick_3">
     <g id="line2d_12">
      <g>
       <use style="stroke:#000000;stroke-width:0.8;" x="72" xlink:href="#md02f538ecb" y="288.918652"/>
      </g>
     </g>
     <g id="text_12">
      <!-- 0.10 -->
      <g transform="translate(43.4625 292.663964)scale(0.1 -0.1)">
       <use xlink:href="#IPAexGothic-48"/>
       <use x="62.988281" xlink:href="#IPAexGothic-46"/>
       <use x="89.404297" xlink:href="#IPAexGothic-49"/>
       <use x="152.392578" xlink:href="#IPAexGothic-48"/>
      </g>
     </g>
    </g>
    <g id="ytick_4">
     <g id="line2d_13">
      <g>
       <use style="stroke:#000000;stroke-width:0.8;" x="72" xlink:href="#md02f538ecb" y="251.74095"/>
      </g>
     </g>
     <g id="text_13">
      <!-- 0.15 -->
      <g transform="translate(43.4625 255.486262)scale(0.1 -0.1)">
       <use xlink:href="#IPAexGothic-48"/>
       <use x="62.988281" xlink:href="#IPAexGothic-46"/>
       <use x="89.404297" xlink:href="#IPAexGothic-49"/>
       <use x="152.392578" xlink:href="#IPAexGothic-53"/>
      </g>
     </g>
    </g>
    <g id="ytick_5">
     <g id="line2d_14">
      <g>
       <use style="stroke:#000000;stroke-width:0.8;" x="72" xlink:href="#md02f538ecb" y="214.563248"/>
      </g>
     </g>
     <g id="text_14">
      <!-- 0.20 -->
      <g transform="translate(43.4625 218.30856)scale(0.1 -0.1)">
       <use xlink:href="#IPAexGothic-48"/>
       <use x="62.988281" xlink:href="#IPAexGothic-46"/>
       <use x="89.404297" xlink:href="#IPAexGothic-50"/>
       <use x="152.392578" xlink:href="#IPAexGothic-48"/>
      </g>
     </g>
    </g>
    <g id="ytick_6">
     <g id="line2d_15">
      <g>
       <use style="stroke:#000000;stroke-width:0.8;" x="72" xlink:href="#md02f538ecb" y="177.385546"/>
      </g>
     </g>
     <g id="text_15">
      <!-- 0.25 -->
      <g transform="translate(43.4625 181.130858)scale(0.1 -0.1)">
       <use xlink:href="#IPAexGothic-48"/>
       <use x="62.988281" xlink:href="#IPAexGothic-46"/>
       <use x="89.404297" xlink:href="#IPAexGothic-50"/>
       <use x="152.392578" xlink:href="#IPAexGothic-53"/>
      </g>
     </g>
    </g>
    <g id="ytick_7">
     <g id="line2d_16">
      <g>
       <use style="stroke:#000000;stroke-width:0.8;" x="72" xlink:href="#md02f538ecb" y="140.207844"/>
      </g>
     </g>
     <g id="text_16">
      <!-- 0.30 -->
      <g transform="translate(43.4625 143.953156)scale(0.1 -0.1)">
       <use xlink:href="#IPAexGothic-48"/>
       <use x="62.988281" xlink:href="#IPAexGothic-46"/>
       <use x="89.404297" xlink:href="#IPAexGothic-51"/>
       <use x="152.392578" xlink:href="#IPAexGothic-48"/>
      </g>
     </g>
    </g>
    <g id="ytick_8">
     <g id="line2d_17">
      <g>
       <use style="stroke:#000000;stroke-width:0.8;" x="72" xlink:href="#md02f538ecb" y="103.030142"/>
      </g>
     </g>
     <g id="text_17">
      <!-- 0.35 -->
      <g transform="translate(43.4625 106.775454)scale(0.1 -0.1)">
       <use xlink:href="#IPAexGothic-48"/>
       <use x="62.988281" xlink:href="#IPAexGothic-46"/>
       <use x="89.404297" xlink:href="#IPAexGothic-51"/>
       <use x="152.392578" xlink:href="#IPAexGothic-53"/>
      </g>
     </g>
    </g>
    <g id="ytick_9">
     <g id="line2d_18">
      <g>
       <use style="stroke:#000000;stroke-width:0.8;" x="72" xlink:href="#md02f538ecb" y="65.85244"/>
      </g>
     </g>
     <g id="text_18">
      <!-- 0.40 -->
      <g transform="translate(43.4625 69.597752)scale(0.1 -0.1)">
       <use xlink:href="#IPAexGothic-48"/>
       <use x="62.988281" xlink:href="#IPAexGothic-46"/>
       <use x="89.404297" xlink:href="#IPAexGothic-52"/>
       <use x="152.392578" xlink:href="#IPAexGothic-48"/>
      </g>
     </g>
    </g>
   </g>
   <g id="line2d_19">
    <path clip-path="url(#pe0926e6172)" d="M 92.290909 363.174545 
L 108.577926 362.932676 
L 119.435938 362.540758 
L 127.579447 362.01149 
L 134.365704 361.327132 
L 139.79471 360.556186 
L 145.223715 359.523168 
L 149.29547 358.533834 
L 153.367224 357.322026 
L 157.438978 355.848423 
L 161.510733 354.069481 
L 164.225236 352.690554 
L 166.939739 351.139847 
L 169.654241 349.40171 
L 172.368744 347.459945 
L 175.083247 345.297933 
L 177.79775 342.898772 
L 180.512253 340.245446 
L 183.226756 337.321021 
L 185.941259 334.108854 
L 188.655762 330.592838 
L 191.370265 326.757664 
L 194.084767 322.589096 
L 196.79927 318.074277 
L 199.513773 313.202033 
L 202.228276 307.963204 
L 204.942779 302.35096 
L 207.657282 296.361137 
L 210.371785 289.99255 
L 214.443539 279.735062 
L 218.515293 268.653393 
L 222.587048 256.78999 
L 226.658802 244.20877 
L 230.730556 230.996067 
L 236.159562 212.58853 
L 244.303071 183.957477 
L 253.803831 150.648801 
L 259.232837 132.568771 
L 263.304591 119.843491 
L 267.376345 108.065892 
L 270.090848 100.8403 
L 272.805351 94.181784 
L 275.519854 88.143293 
L 278.234357 82.773662 
L 280.94886 78.116953 
L 283.663363 74.211851 
L 285.020614 72.551641 
L 286.377866 71.091137 
L 287.735117 69.833438 
L 289.092369 68.781221 
L 290.44962 67.936732 
L 291.806871 67.301776 
L 293.164123 66.877713 
L 294.521374 66.665455 
L 295.878626 66.665455 
L 297.235877 66.877713 
L 298.593129 67.301776 
L 299.95038 67.936732 
L 301.307631 68.781221 
L 302.664883 69.833438 
L 304.022134 71.091137 
L 305.379386 72.551641 
L 306.736637 74.211851 
L 308.093889 76.068258 
L 310.808392 80.353642 
L 313.522894 85.371997 
L 316.237397 91.081879 
L 318.9519 97.43676 
L 321.666403 104.385663 
L 324.380906 111.873841 
L 328.45266 123.990152 
L 332.524415 136.985172 
L 337.95342 155.315439 
L 346.096929 183.957477 
L 355.597689 217.260929 
L 361.026695 235.464201 
L 365.098449 248.477406 
L 369.170204 260.827826 
L 373.241958 272.436668 
L 377.313712 283.247304 
L 381.385467 293.224138 
L 384.09997 299.403393 
L 386.814472 305.204085 
L 389.528975 310.628927 
L 392.243478 315.683457 
L 394.957981 320.37571 
L 397.672484 324.715894 
L 400.386987 328.716064 
L 403.10149 332.389806 
L 405.815993 335.751927 
L 408.530496 338.818171 
L 411.244998 341.604942 
L 413.959501 344.129059 
L 416.674004 346.407522 
L 419.388507 348.457311 
L 422.10301 350.295208 
L 424.817513 351.937637 
L 428.889267 354.069481 
L 432.961022 355.848423 
L 437.032776 357.322026 
L 441.10453 358.533834 
L 445.176285 359.523168 
L 450.60529 360.556186 
L 456.034296 361.327132 
L 462.820553 362.01149 
L 469.606811 362.469814 
L 479.107571 362.858993 
L 491.322834 363.105641 
L 498.109091 363.174545 
L 498.109091 363.174545 
" style="fill:none;stroke:#008000;stroke-linecap:square;stroke-width:2;"/>
   </g>
   <g id="line2d_20">
    <path clip-path="url(#pe0926e6172)" d="M 92.290909 349.351667 
L 103.148921 347.838473 
L 112.649681 346.308154 
L 122.150441 344.545552 
L 130.29395 342.814 
L 138.437458 340.839791 
L 145.223715 338.976745 
L 152.009973 336.882006 
L 158.79623 334.517609 
L 164.225236 332.401652 
L 169.654241 330.05671 
L 175.083247 327.450903 
L 180.512253 324.547165 
L 184.584007 322.148153 
L 188.655762 319.536688 
L 192.727516 316.689532 
L 196.79927 313.580695 
L 200.871025 310.181162 
L 204.942779 306.458636 
L 209.014533 302.377325 
L 213.086288 297.897801 
L 217.158042 292.977005 
L 221.229796 287.568476 
L 225.301551 281.622924 
L 229.373305 275.089336 
L 232.087808 270.381712 
L 234.802311 265.375582 
L 238.874065 257.2779 
L 242.945819 248.442251 
L 247.017574 238.848231 
L 251.089328 228.50114 
L 255.161082 217.444145 
L 259.232837 205.772976 
L 266.019094 185.440863 
L 272.805351 165.197927 
L 276.877106 153.908969 
L 279.591608 147.063128 
L 282.306111 140.956873 
L 285.020614 135.755185 
L 286.377866 133.541875 
L 287.735117 131.61019 
L 289.092369 129.975463 
L 290.44962 128.650976 
L 291.806871 127.647699 
L 293.164123 126.974067 
L 294.521374 126.635805 
L 295.878626 126.635805 
L 297.235877 126.974067 
L 298.593129 127.647699 
L 299.95038 128.650976 
L 301.307631 129.975463 
L 302.664883 131.61019 
L 304.022134 133.541875 
L 305.379386 135.755185 
L 306.736637 138.23303 
L 309.45114 143.907058 
L 312.165643 150.40414 
L 314.880146 157.556579 
L 318.9519 169.152144 
L 325.738157 189.552309 
L 332.524415 209.723047 
L 336.596169 221.204036 
L 340.667923 232.032111 
L 344.739678 242.130824 
L 348.811432 251.47115 
L 352.883186 260.057571 
L 356.954941 267.916829 
L 361.026695 275.089336 
L 365.098449 281.622924 
L 369.170204 287.568476 
L 373.241958 292.977005 
L 377.313712 297.897801 
L 381.385467 302.377325 
L 385.457221 306.458636 
L 389.528975 310.181162 
L 393.60073 313.580695 
L 397.672484 316.689532 
L 401.744238 319.536688 
L 405.815993 322.148153 
L 409.887747 324.547165 
L 415.316753 327.450903 
L 420.745759 330.05671 
L 426.174764 332.401652 
L 431.60377 334.517609 
L 438.390027 336.882006 
L 445.176285 338.976745 
L 451.962542 340.839791 
L 460.10605 342.814 
L 468.249559 344.545552 
L 477.750319 346.308154 
L 487.251079 347.838473 
L 498.109091 349.351667 
L 498.109091 349.351667 
" style="fill:none;stroke:#0000ff;stroke-linecap:square;stroke-width:2;"/>
   </g>
   <g id="patch_3">
    <path d="M 72 378 
L 72 51.84 
" style="fill:none;stroke:#000000;stroke-linecap:square;stroke-linejoin:miter;stroke-width:0.8;"/>
   </g>
   <g id="patch_4">
    <path d="M 518.4 378 
L 518.4 51.84 
" style="fill:none;stroke:#000000;stroke-linecap:square;stroke-linejoin:miter;stroke-width:0.8;"/>
   </g>
   <g id="patch_5">
    <path d="M 72 378 
L 518.4 378 
" style="fill:none;stroke:#000000;stroke-linecap:square;stroke-linejoin:miter;stroke-width:0.8;"/>
   </g>
   <g id="patch_6">
    <path d="M 72 51.84 
L 518.4 51.84 
" style="fill:none;stroke:#000000;stroke-linecap:square;stroke-linejoin:miter;stroke-width:0.8;"/>
   </g>
   <g id="text_19">
    <!-- t 分布と正規分布の確率密度関数 -->
    <g transform="translate(149.0375 45.84)scale(0.2 -0.2)">
     <defs>
      <path d="M 33.203125 3.765625 
Q 27.640625 -0.09375 21.828125 -0.09375 
Q 10.203125 -0.09375 10.203125 12.984375 
L 10.203125 44.671875 
L 3.421875 44.671875 
L 3.421875 50.78125 
L 10.203125 50.78125 
L 10.203125 61.96875 
L 18.40625 66.0625 
L 18.40625 50.78125 
L 32.234375 50.78125 
L 32.234375 44.671875 
L 18.40625 44.671875 
L 18.40625 14.15625 
Q 18.40625 6.5 23.640625 6.5 
Q 27.15625 6.5 30.328125 9.1875 
z
" id="IPAexGothic-116"/>
      <path id="IPAexGothic-32"/>
      <path d="M 47.359375 37.984375 
Q 45.5625 21.53125 39.5 11.859375 
Q 31.109375 -1.265625 14.703125 -7.328125 
L 9.765625 -0.828125 
Q 36.8125 7.625 39.703125 37.984375 
L 21.484375 37.984375 
L 21.484375 43.3125 
Q 16.3125 37.984375 10.203125 33.6875 
L 4.890625 39.59375 
Q 25 53.515625 34.671875 79 
L 42 76.171875 
Q 34.375 57.375 22.703125 44.484375 
L 77.59375 44.484375 
Q 76.21875 8.734375 74.078125 1.46875 
Q 72.90625 -2.546875 69.671875 -3.90625 
Q 67 -5.03125 61.578125 -5.03125 
Q 55.078125 -5.03125 46.578125 -4.109375 
L 45.0625 4 
Q 53.765625 2.15625 60.0625 2.15625 
Q 65.828125 2.15625 66.890625 6.84375 
Q 68.5625 14.546875 69.875 37.984375 
z
M 89.796875 35.984375 
Q 69 50.59375 54.78125 77.09375 
L 61.46875 79.890625 
Q 74.171875 55.8125 95.0625 42.921875 
z
" id="IPAexGothic-20998"/>
      <path d="M 50.4375 42.828125 
L 50.4375 56 
L 57.625 56 
L 57.625 42.828125 
L 85.9375 42.828125 
L 85.9375 11.71875 
Q 85.9375 7.421875 83.640625 5.765625 
Q 81.6875 4.25 76.5625 4.25 
Q 72.265625 4.25 66.703125 4.546875 
L 65.4375 12.109375 
Q 71.875 11.140625 75.53125 11.140625 
Q 78.859375 11.140625 78.859375 14.9375 
L 78.859375 36.328125 
L 57.625 36.328125 
L 57.625 -6.984375 
L 50.4375 -6.984375 
L 50.4375 36.328125 
L 32.125 36.328125 
L 32.125 1.421875 
L 25.046875 1.421875 
L 25.046875 34.8125 
Q 18.109375 27.296875 9.71875 20.515625 
L 4.734375 26.421875 
Q 24.125 41.015625 33.5 60.109375 
L 8.0625 60.109375 
L 8.0625 66.796875 
L 36.53125 66.796875 
Q 39.15625 73.1875 41.5 81.6875 
L 49.21875 80.515625 
Q 46.6875 71.578125 44.625 66.796875 
L 93.5 66.796875 
L 93.5 60.109375 
L 41.703125 60.109375 
Q 37.015625 50.484375 31.390625 42.828125 
z
" id="IPAexGothic-24067"/>
      <path d="M 81.59375 0.875 
Q 65.625 -1.125 53.90625 -1.125 
Q 38.71875 -1.125 30.328125 1.765625 
Q 18.5 5.8125 18.5 16.21875 
Q 18.5 24.75 24.90625 31.390625 
Q 30.328125 37.015625 41.5 42.578125 
Q 34.859375 58.34375 30.8125 76.21875 
L 38.921875 77.78125 
Q 42.28125 60.6875 48.09375 46.09375 
Q 66.40625 53.859375 74.3125 56.5 
L 77.78125 49.21875 
Q 49.703125 40.234375 37.640625 32.46875 
Q 26.421875 25.203125 26.421875 17.390625 
Q 26.421875 6.296875 51.90625 6.296875 
Q 64.453125 6.296875 80.21875 8.796875 
z
" id="IPAexGothic-12392"/>
      <path d="M 55.421875 6.390625 
L 92.4375 6.390625 
L 92.4375 -0.484375 
L 7.515625 -0.484375 
L 7.515625 6.390625 
L 22.515625 6.390625 
L 22.515625 50.484375 
L 30.21875 50.484375 
L 30.21875 6.390625 
L 47.796875 6.390625 
L 47.796875 67 
L 11.71875 67 
L 11.71875 73.875 
L 88.421875 73.875 
L 88.421875 67 
L 55.421875 67 
L 55.421875 41.703125 
L 83.640625 41.703125 
L 83.640625 35.015625 
L 55.421875 35.015625 
z
" id="IPAexGothic-27491"/>
      <path d="M 77 25.59375 
L 77 5.171875 
Q 77 2.6875 78.328125 2.09375 
Q 79.109375 1.703125 81.78125 1.703125 
Q 87.5 1.703125 88.375 4.6875 
Q 88.96875 6.9375 89.3125 16.109375 
L 95.796875 13.28125 
Q 95.015625 1.46875 93.703125 -1.078125 
Q 92 -4.34375 87.5 -4.78125 
Q 84.671875 -4.984375 81 -4.984375 
Q 73.4375 -4.984375 71.734375 -3.265625 
Q 70.3125 -1.90625 70.3125 1.703125 
L 70.3125 25.59375 
L 63.1875 25.59375 
Q 62.75 12.796875 58.40625 5.328125 
Q 53.421875 -3.265625 40.28125 -7.8125 
L 36.078125 -2.09375 
Q 48.34375 1.3125 52.984375 9.578125 
Q 56.34375 15.578125 56.5 25.59375 
L 46.578125 25.59375 
L 46.578125 78.90625 
L 88.28125 78.90625 
L 88.28125 25.59375 
z
M 53.078125 72.90625 
L 53.078125 63.09375 
L 81.6875 63.09375 
L 81.6875 72.90625 
z
M 53.078125 57.28125 
L 53.078125 47.609375 
L 81.6875 47.609375 
L 81.6875 57.28125 
z
M 53.078125 41.796875 
L 53.078125 31.59375 
L 81.6875 31.59375 
L 81.6875 41.796875 
z
M 21.390625 64.203125 
L 21.390625 81.5 
L 28.078125 81.5 
L 28.078125 64.203125 
L 41.265625 64.203125 
L 41.265625 58.015625 
L 28.078125 58.015625 
L 28.078125 42.921875 
L 42.671875 42.921875 
L 42.671875 36.71875 
L 28.078125 36.71875 
Q 27.9375 33.25 27.484375 28.90625 
Q 27.6875 28.8125 28.078125 28.421875 
Q 37.0625 22.171875 45.265625 13.234375 
L 40.578125 7.234375 
Q 34.125 15.625 26.265625 22.40625 
Q 22.40625 6.546875 9.671875 -3.46875 
L 4.59375 1.90625 
Q 20.5625 12.9375 21.296875 36.71875 
L 4.984375 36.71875 
L 4.984375 42.921875 
L 21.390625 42.921875 
L 21.390625 58.015625 
L 7.078125 58.015625 
L 7.078125 64.203125 
z
" id="IPAexGothic-35215"/>
      <path d="M 48.734375 7.328125 
Q 82.421875 11.96875 82.421875 37.890625 
Q 82.421875 53.953125 68.953125 61.328125 
Q 63.140625 64.3125 55.421875 64.984375 
Q 53.03125 39.453125 44.53125 21.875 
Q 36.28125 4.78125 26.90625 4.78125 
Q 21.625 4.78125 16.9375 10.40625 
Q 9.515625 19.4375 9.515625 31.296875 
Q 9.515625 47.265625 21.828125 59.28125 
Q 34.125 71.296875 53.609375 71.296875 
Q 67.28125 71.296875 77 64.40625 
Q 90.828125 54.78125 90.828125 37.890625 
Q 90.828125 6.84375 53.609375 0.09375 
z
M 47.703125 64.796875 
Q 37.15625 63.1875 29.546875 56.890625 
Q 17.140625 46.578125 17.140625 31.109375 
Q 17.140625 21.34375 22.40625 15.28125 
Q 24.703125 12.703125 26.859375 12.703125 
Q 31.59375 12.703125 37.75 25.390625 
Q 45.453125 41.21875 47.703125 64.796875 
z
" id="IPAexGothic-12398"/>
      <path d="M 67.921875 50.296875 
Q 70.5625 55.28125 72.609375 61.8125 
L 79.296875 60.203125 
Q 76.171875 53.609375 74.21875 50.296875 
L 92 50.296875 
L 92 44.484375 
L 73.4375 44.484375 
L 73.4375 34.71875 
L 89.703125 34.71875 
L 89.703125 29.203125 
L 73.4375 29.203125 
L 73.4375 19.53125 
L 89.703125 19.53125 
L 89.703125 14.015625 
L 73.4375 14.015625 
L 73.4375 3.609375 
L 94.28125 3.609375 
L 94.28125 -2.203125 
L 54.109375 -2.203125 
L 54.109375 -6.984375 
L 47.609375 -6.984375 
L 47.609375 38.1875 
Q 43.0625 31.546875 38.8125 26.609375 
L 35.6875 32.8125 
Q 49.359375 49.953125 54.78125 64.796875 
L 45.515625 64.796875 
L 45.515625 53.515625 
L 39.203125 53.515625 
L 39.203125 70.609375 
L 56.78125 70.609375 
Q 58.59375 76.609375 60.109375 83.109375 
L 66.703125 81.890625 
Q 65.234375 75.53125 63.625 70.609375 
L 92.71875 70.609375 
L 92.71875 53.515625 
L 86.328125 53.515625 
L 86.328125 64.796875 
L 61.53125 64.796875 
Q 58.546875 56.984375 54.890625 50.296875 
z
M 67.140625 44.484375 
L 54.109375 44.484375 
L 54.109375 34.71875 
L 67.140625 34.71875 
z
M 67.140625 29.203125 
L 54.109375 29.203125 
L 54.109375 19.53125 
L 67.140625 19.53125 
z
M 67.140625 14.015625 
L 54.109375 14.015625 
L 54.109375 3.609375 
L 67.140625 3.609375 
z
M 18.109375 46 
L 35.546875 46 
L 35.546875 3.078125 
L 18.953125 3.078125 
L 18.953125 -5.125 
L 12.75 -5.125 
L 12.75 34.46875 
Q 10.15625 29.734375 6.15625 23.78125 
L 2.9375 29.984375 
Q 14.546875 47.078125 18.75 69 
L 6.34375 69 
L 6.34375 75.296875 
L 37.640625 75.296875 
L 37.640625 69 
L 25.25 69 
L 24.953125 68.015625 
Q 22.75 57.234375 18.109375 46 
z
M 18.953125 39.890625 
L 18.953125 9.1875 
L 29.34375 9.1875 
L 29.34375 39.890625 
z
" id="IPAexGothic-30906"/>
      <path d="M 47.21875 44.484375 
Q 52.15625 50.484375 57.5625 58.5 
L 63.328125 55.078125 
Q 54.78125 43.21875 45.609375 34.078125 
L 51.03125 34.375 
Q 55.859375 34.515625 59.765625 34.90625 
Q 58.25 37.59375 55.859375 40.875 
L 61.140625 43.3125 
Q 66.3125 36.71875 70.953125 27.59375 
L 64.9375 24.171875 
Q 63.8125 27.390625 62.453125 29.890625 
L 60.25 29.59375 
Q 57.953125 29.296875 53.375 28.90625 
L 53.375 19.1875 
L 95.0625 19.1875 
L 95.0625 12.796875 
L 53.375 12.796875 
L 53.375 -6.984375 
L 45.953125 -6.984375 
L 45.953125 12.796875 
L 5.03125 12.796875 
L 5.03125 19.1875 
L 45.953125 19.1875 
L 45.953125 28.171875 
L 45.015625 28.078125 
Q 36.03125 27.484375 31.734375 27.296875 
L 29.734375 33.796875 
Q 36.234375 33.796875 37.75 33.890625 
Q 39.40625 35.453125 43.3125 39.890625 
Q 36.671875 47.3125 29.9375 52.296875 
L 34.125 57.078125 
L 38.234375 53.515625 
Q 41.890625 58.5 44.828125 64.5 
L 8.546875 64.5 
L 8.546875 70.703125 
L 45.953125 70.703125 
L 45.953125 83.015625 
L 53.375 83.015625 
L 53.375 70.703125 
L 91.453125 70.703125 
L 91.453125 64.5 
L 46.4375 64.5 
L 51.21875 62.203125 
Q 46.734375 54.828125 42.140625 49.8125 
Q 44.53125 47.515625 47.21875 44.484375 
z
M 23.390625 44.09375 
Q 17.625 50.984375 10.796875 55.71875 
L 15.625 60.109375 
Q 22.015625 56.0625 28.609375 49.3125 
z
M 65.921875 48.09375 
Q 74.90625 54.34375 80.421875 60.890625 
L 86.53125 56.5 
Q 79.34375 49.65625 70.21875 43.796875 
z
M 86.8125 25.484375 
Q 78.078125 32.953125 68.3125 38.1875 
L 72.796875 42.828125 
Q 83.6875 37.203125 92.09375 31 
z
M 8.40625 30.078125 
Q 20.40625 35.890625 29.390625 43.796875 
L 32.421875 38.375 
Q 25.34375 31.78125 12.703125 23.875 
z
" id="IPAexGothic-29575"/>
      <path d="M 46.625 24.609375 
Q 35.0625 24.609375 32.8125 26.421875 
L 32.328125 26.125 
Q 22.125 20.796875 9.71875 17 
L 5.90625 22.515625 
Q 20.40625 26.609375 30.90625 31.984375 
L 30.90625 56.390625 
L 37.796875 56.390625 
L 37.796875 36.078125 
Q 54.6875 47.3125 65.4375 63.921875 
L 71.4375 61.078125 
Q 58.984375 42.671875 41.40625 31.390625 
L 40.71875 31 
Q 41.21875 31 41.5 30.90625 
Q 43.40625 30.8125 48.4375 30.8125 
Q 62.890625 30.8125 64.203125 32.71875 
Q 65.53125 34.421875 65.53125 42.71875 
L 72.3125 40.828125 
Q 72.171875 29.203125 68.3125 26.609375 
Q 65.625 24.859375 53.71875 24.703125 
L 53.71875 3.90625 
L 75.734375 3.90625 
L 75.734375 20.90625 
L 82.8125 20.90625 
L 82.8125 -6.984375 
L 75.734375 -6.984375 
L 75.734375 -2.59375 
L 25.296875 -2.59375 
L 25.296875 -6.984375 
L 18.3125 -6.984375 
L 18.3125 18.703125 
L 25.296875 18.703125 
L 25.296875 3.90625 
L 46.625 3.90625 
z
M 53.421875 70.90625 
L 90.328125 70.90625 
L 90.328125 52.984375 
L 83.015625 52.984375 
L 83.015625 64.890625 
L 16.796875 64.890625 
L 16.796875 52.984375 
L 9.625 52.984375 
L 9.625 70.90625 
L 45.90625 70.90625 
L 45.90625 83.015625 
L 53.421875 83.015625 
z
M 48.921875 48.96875 
Q 44.78125 54.828125 38.8125 60.5 
L 43.796875 63.96875 
Q 49.90625 59.078125 54.203125 53.078125 
z
M 10.984375 33.59375 
Q 17.046875 42.53125 20.21875 54.390625 
L 26.3125 52.59375 
Q 23.578125 40.234375 17 29.59375 
z
M 84.90625 29.390625 
Q 77.9375 42.328125 69.828125 51.8125 
L 75 55.515625 
Q 84.375 45.21875 91.109375 33.984375 
z
" id="IPAexGothic-23494"/>
      <path d="M 54.9375 72.21875 
L 90.53125 72.21875 
L 90.53125 66.109375 
L 19.96875 66.109375 
L 19.96875 55.421875 
L 36.375 55.421875 
L 36.375 63.140625 
L 43.109375 63.140625 
L 43.109375 55.421875 
L 64.015625 55.421875 
L 64.015625 63.140625 
L 70.703125 63.140625 
L 70.703125 55.421875 
L 91.015625 55.421875 
L 91.015625 49.421875 
L 70.703125 49.421875 
L 70.703125 35.40625 
L 36.375 35.40625 
L 36.375 49.421875 
L 19.96875 49.421875 
L 19.96875 42.921875 
Q 19.96875 22.40625 17.671875 12.109375 
Q 15.71875 3.171875 9.46875 -6.890625 
L 4.203125 -0.78125 
Q 10.203125 8.453125 11.921875 21.578125 
Q 12.890625 29.203125 12.890625 42.921875 
L 12.890625 72.21875 
L 47.40625 72.21875 
L 47.40625 83.015625 
L 54.9375 83.015625 
z
M 43.109375 49.421875 
L 43.109375 40.921875 
L 64.015625 40.921875 
L 64.015625 49.421875 
z
M 56.390625 4.109375 
Q 43.5 -3.609375 23 -7.71875 
L 19.09375 -1.515625 
Q 38.1875 0.984375 50.203125 7.671875 
Q 39.75 14.203125 33.109375 23.78125 
L 24.609375 23.78125 
L 24.609375 29.6875 
L 76.515625 29.6875 
L 80.078125 26.5625 
Q 72.3125 15.53125 62.40625 8.0625 
Q 74.515625 3.125 92.578125 0.875 
L 88.09375 -6.203125 
Q 69.28125 -2.546875 56.390625 4.109375 
z
M 40.71875 23.78125 
Q 46.625 16.3125 55.90625 11.1875 
Q 65.046875 17.484375 69.09375 23.78125 
z
" id="IPAexGothic-24230"/>
      <path d="M 45.609375 79.109375 
L 45.609375 51.375 
L 15.875 51.375 
L 15.875 -7.03125 
L 8.890625 -7.03125 
L 8.890625 79.109375 
z
M 15.875 73.578125 
L 15.875 67.671875 
L 39.203125 67.671875 
L 39.203125 73.578125 
z
M 15.875 62.796875 
L 15.875 56.6875 
L 39.203125 56.6875 
L 39.203125 62.796875 
z
M 90.96875 79.109375 
L 90.96875 0.6875 
Q 90.96875 -6.390625 82.765625 -6.390625 
Q 77.4375 -6.390625 73 -5.71875 
L 71.78125 1.515625 
Q 75.640625 0.484375 80.5625 0.484375 
Q 83.890625 0.484375 83.890625 3.8125 
L 83.890625 51.375 
L 53.46875 51.375 
L 53.46875 79.109375 
z
M 59.859375 73.578125 
L 59.859375 67.671875 
L 83.890625 67.671875 
L 83.890625 73.578125 
z
M 59.859375 62.796875 
L 59.859375 56.6875 
L 83.890625 56.6875 
L 83.890625 62.796875 
z
M 37.890625 38.71875 
Q 36.375 42.390625 33.59375 46.484375 
L 39.984375 48.78125 
Q 42.328125 44.78125 44.671875 38.71875 
L 55.078125 38.71875 
Q 58.0625 44.484375 59.46875 49.171875 
L 66.5 47.21875 
Q 63.8125 41.703125 61.765625 38.71875 
L 74.46875 38.71875 
L 74.46875 33.015625 
L 52.984375 33.015625 
L 52.984375 26.125 
L 77 26.125 
L 77 20.3125 
L 52.59375 20.3125 
Q 52.546875 19.734375 52.09375 17.828125 
Q 62.75 13.484375 73.96875 6.390625 
L 69.1875 0.53125 
Q 60.75 6.890625 51.265625 11.921875 
Q 51.21875 11.96875 50.640625 12.3125 
Q 50.390625 12.453125 50.296875 12.5 
Q 45.015625 1.5625 29.296875 -4 
L 24.8125 1.90625 
Q 43.265625 6.390625 45.796875 20.3125 
L 22.90625 20.3125 
L 22.90625 26.125 
L 46.296875 26.125 
L 46.296875 33.015625 
L 25.390625 33.015625 
L 25.390625 38.71875 
z
" id="IPAexGothic-38306"/>
      <path d="M 44.484375 24.265625 
Q 42.828125 15.71875 37.890625 8.34375 
Q 41.015625 6.890625 48.296875 3.171875 
L 43.890625 -2.9375 
Q 39.703125 0 33.5 3.265625 
Q 24.515625 -4.546875 10.984375 -7.8125 
L 6.59375 -1.953125 
Q 19.734375 0.296875 27.296875 6.34375 
Q 19.09375 10.15625 11.46875 12.75 
Q 15.234375 18.3125 17.921875 23.484375 
L 18.3125 24.265625 
L 5.609375 24.265625 
L 5.609375 30.078125 
L 21 30.078125 
Q 21.96875 32.28125 24.515625 38.671875 
L 26.421875 38.28125 
L 26.421875 52.6875 
Q 19.53125 42.78125 8.59375 35.984375 
L 4.296875 41.609375 
Q 15.921875 47.078125 23.875 56.890625 
L 5.90625 56.890625 
L 5.90625 62.59375 
L 26.421875 62.59375 
L 26.421875 83.015625 
L 33.015625 83.015625 
L 33.015625 62.59375 
L 51.515625 62.59375 
L 51.515625 56.890625 
L 33.015625 56.890625 
L 33.015625 54.890625 
Q 41.546875 51.421875 49.609375 46.296875 
L 46.1875 40.375 
Q 39.890625 45.65625 33.015625 49.359375 
L 33.015625 37.0625 
L 30.71875 37.0625 
Q 30.125 35.75 29.25 33.453125 
Q 28.21875 30.859375 27.875 30.078125 
L 52.78125 30.078125 
L 52.78125 24.265625 
z
M 37.796875 24.265625 
L 25.203125 24.265625 
Q 23.09375 19.828125 20.515625 15.578125 
Q 24.359375 14.203125 31.984375 10.984375 
Q 36.140625 16.359375 37.796875 24.265625 
z
M 68.171875 18.171875 
Q 61.765625 27.828125 58.40625 41.21875 
Q 55.859375 35.640625 53.5625 31.5 
L 48.484375 37.59375 
Q 57.421875 53.8125 61.1875 82.671875 
L 68.171875 81.25 
Q 66.9375 72.90625 65.578125 65.578125 
L 93.890625 65.578125 
L 93.890625 58.984375 
L 85.984375 58.984375 
Q 84.328125 35.546875 76.078125 18.609375 
Q 84.671875 7.859375 96 1.171875 
L 90.96875 -5.90625 
Q 81.0625 1.65625 72.359375 12.3125 
Q 64.265625 0.53125 52.203125 -7.234375 
L 47.359375 -1.21875 
Q 60.75 6.34375 68.171875 18.171875 
z
M 71.6875 24.90625 
Q 77.15625 37.3125 79.046875 58.984375 
L 64.0625 58.984375 
Q 63.140625 54.984375 62.0625 51.375 
Q 62.203125 50.78125 62.359375 49.90625 
Q 65.234375 35.25 71.6875 24.90625 
z
M 15.671875 64.3125 
Q 13.71875 71 9.96875 77.09375 
L 16.453125 79.59375 
Q 19.484375 74.8125 22.46875 66.703125 
z
M 36.1875 66.703125 
Q 39.84375 73.25 42 80.171875 
L 48.875 78.078125 
Q 46.34375 71.6875 41.796875 64.5 
z
" id="IPAexGothic-25968"/>
     </defs>
     <use xlink:href="#IPAexGothic-116"/>
     <use x="34.619141" xlink:href="#IPAexGothic-32"/>
     <use x="61.621094" xlink:href="#IPAexGothic-20998"/>
     <use x="161.621094" xlink:href="#IPAexGothic-24067"/>
     <use x="261.621094" xlink:href="#IPAexGothic-12392"/>
     <use x="361.621094" xlink:href="#IPAexGothic-27491"/>
     <use x="461.621094" xlink:href="#IPAexGothic-35215"/>
     <use x="561.621094" xlink:href="#IPAexGothic-20998"/>
     <use x="661.621094" xlink:href="#IPAexGothic-24067"/>
     <use x="761.621094" xlink:href="#IPAexGothic-12398"/>
     <use x="861.621094" xlink:href="#IPAexGothic-30906"/>
     <use x="961.621094" xlink:href="#IPAexGothic-29575"/>
     <use x="1061.621094" xlink:href="#IPAexGothic-23494"/>
     <use x="1161.621094" xlink:href="#IPAexGothic-24230"/>
     <use x="1261.621094" xlink:href="#IPAexGothic-38306"/>
     <use x="1361.621094" xlink:href="#IPAexGothic-25968"/>
    </g>
   </g>
   <g id="legend_1">
    <g id="patch_7">
     <path d="M 370.811562 104.359687 
L 508.6 104.359687 
Q 511.4 104.359687 511.4 101.559687 
L 511.4 61.64 
Q 511.4 58.84 508.6 58.84 
L 370.811562 58.84 
Q 368.011562 58.84 368.011562 61.64 
L 368.011562 101.559687 
Q 368.011562 104.359687 370.811562 104.359687 
z
" style="fill:#ffffff;opacity:0.8;stroke:#cccccc;stroke-linejoin:miter;"/>
    </g>
    <g id="line2d_21">
     <path d="M 373.611562 70.026875 
L 401.611562 70.026875 
" style="fill:none;stroke:#008000;stroke-linecap:square;stroke-width:2;"/>
    </g>
    <g id="line2d_22"/>
    <g id="text_20">
     <!-- 正規分布 -->
     <g transform="translate(412.811562 74.926875)scale(0.14 -0.14)">
      <use xlink:href="#IPAexGothic-27491"/>
      <use x="100" xlink:href="#IPAexGothic-35215"/>
      <use x="200" xlink:href="#IPAexGothic-20998"/>
      <use x="300" xlink:href="#IPAexGothic-24067"/>
     </g>
    </g>
    <g id="line2d_23">
     <path d="M 373.611562 91.199687 
L 401.611562 91.199687 
" style="fill:none;stroke:#0000ff;stroke-linecap:square;stroke-width:2;"/>
    </g>
    <g id="line2d_24"/>
    <g id="text_21">
     <!-- t分布(自由度1) -->
     <g transform="translate(412.811562 96.099687)scale(0.14 -0.14)">
      <defs>
       <path d="M 30.125 -15.875 
L 25.828125 -18.21875 
Q 7.625 1.078125 7.625 29.296875 
Q 7.625 57.46875 25.828125 76.703125 
L 30.125 74.421875 
Q 15.71875 55.03125 15.71875 29.390625 
Q 15.71875 3.171875 30.125 -15.875 
z
" id="IPAexGothic-40"/>
       <path d="M 40.484375 68.015625 
Q 42.484375 74.46875 44 82.71875 
L 52.484375 81.109375 
Q 50.78125 75.140625 48 68.015625 
L 82.671875 68.015625 
L 82.671875 -7.03125 
L 75.34375 -7.03125 
L 75.34375 -1.125 
L 24.515625 -1.125 
L 24.515625 -7.03125 
L 17.1875 -7.03125 
L 17.1875 68.015625 
z
M 24.515625 61.8125 
L 24.515625 47.3125 
L 75.34375 47.3125 
L 75.34375 61.8125 
z
M 24.515625 41.3125 
L 24.515625 26.8125 
L 75.34375 26.8125 
L 75.34375 41.3125 
z
M 24.515625 20.796875 
L 24.515625 5.078125 
L 75.34375 5.078125 
L 75.34375 20.796875 
z
" id="IPAexGothic-33258"/>
       <path d="M 45.796875 63.921875 
L 45.796875 80.421875 
L 53.515625 80.421875 
L 53.515625 63.921875 
L 87.3125 63.921875 
L 87.3125 -5.515625 
L 79.6875 -5.515625 
L 79.6875 0.484375 
L 20.21875 0.484375 
L 20.21875 -5.515625 
L 12.59375 -5.515625 
L 12.59375 63.921875 
z
M 20.21875 57.234375 
L 20.21875 36.375 
L 45.90625 36.375 
L 45.90625 57.234375 
z
M 20.21875 29.890625 
L 20.21875 7.171875 
L 45.90625 7.171875 
L 45.90625 29.890625 
z
M 53.421875 57.234375 
L 53.421875 36.375 
L 79.6875 36.375 
L 79.6875 57.234375 
z
M 53.421875 29.890625 
L 53.421875 7.171875 
L 79.6875 7.171875 
L 79.6875 29.890625 
z
" id="IPAexGothic-30001"/>
       <path d="M 7.28125 76.703125 
Q 25.59375 57.375 25.59375 29.296875 
Q 25.59375 1.171875 7.28125 -18.21875 
L 2.984375 -15.875 
Q 17.484375 3.375 17.484375 29.390625 
Q 17.484375 54.828125 2.984375 74.421875 
z
" id="IPAexGothic-41"/>
      </defs>
      <use xlink:href="#IPAexGothic-116"/>
      <use x="34.619141" xlink:href="#IPAexGothic-20998"/>
      <use x="134.619141" xlink:href="#IPAexGothic-24067"/>
      <use x="234.619141" xlink:href="#IPAexGothic-40"/>
      <use x="267.919922" xlink:href="#IPAexGothic-33258"/>
      <use x="367.919922" xlink:href="#IPAexGothic-30001"/>
      <use x="467.919922" xlink:href="#IPAexGothic-24230"/>
      <use x="567.919922" xlink:href="#IPAexGothic-49"/>
      <use x="630.908203" xlink:href="#IPAexGothic-41"/>
     </g>
    </g>
   </g>
  </g>
 </g>
 <defs>
  <clipPath id="pe0926e6172">
   <rect height="326.16" width="446.4" x="72" y="51.84"/>
  </clipPath>
 </defs>
</svg>
